<svg version="1.1" viewBox="0.0 0.0 960.0 720.0" fill="none" stroke="none" stroke-linecap="square" stroke-miterlimit="10" xmlns:xlink="http://www.w3.org/1999/xlink" xmlns="http://www.w3.org/2000/svg"><clipPath id="p.0"><path d="m0 0l960.0 0l0 720.0l-960.0 0l0 -720.0z" clip-rule="nonzero"/></clipPath><g clip-path="url(#p.0)"><path fill="#000000" fill-opacity="0.0" d="m0 0l960.0 0l0 720.0l-960.0 0z" fill-rule="evenodd"/><path fill="#cfe2f3" d="m0 0l960.0 0l0 720.0l-960.0 0z" fill-rule="evenodd"/><path stroke="#000000" stroke-width="1.0" stroke-linejoin="round" stroke-linecap="butt" d="m0 0l960.0 0l0 720.0l-960.0 0z" fill-rule="evenodd"/><path fill="#000000" fill-opacity="0.0" d="m727.979 516.05774l146.2992 0l0 48.75592l-146.2992 0z" fill-rule="evenodd"/><path fill="#000000" d="m809.4962 542.9777l0 -9.671875l1.46875 0l0 1.359375q0.453125 -0.71875 1.203125 -1.140625q0.765625 -0.4375 1.71875 -0.4375q1.078125 0 1.765625 0.453125q0.6875 0.4375 0.96875 1.234375q1.15625 -1.6875 2.984375 -1.6875q1.453125 0 2.21875 0.796875q0.78125 0.796875 0.78125 2.453125l0 6.640625l-1.640625 0l0 -6.09375q0 -0.984375 -0.15625 -1.40625q-0.15625 -0.4375 -0.578125 -0.703125q-0.421875 -0.265625 -0.984375 -0.265625q-1.015625 0 -1.6875 0.6875q-0.671875 0.671875 -0.671875 2.15625l0 5.625l-1.640625 0l0 -6.28125q0 -1.09375 -0.40625 -1.640625q-0.40625 -0.546875 -1.3125 -0.546875q-0.6875 0 -1.28125 0.359375q-0.59375 0.359375 -0.859375 1.0625q-0.25 0.703125 -0.25 2.03125l0 5.015625l-1.640625 0zm21.853333 -1.1875q-0.921875 0.765625 -1.765625 1.09375q-0.828125 0.3125 -1.796875 0.3125q-1.59375 0 -2.453125 -0.78125q-0.859375 -0.78125 -0.859375 -1.984375q0 -0.71875 0.328125 -1.296875q0.328125 -0.59375 0.84375 -0.9375q0.53125 -0.359375 1.1875 -0.546875q0.46875 -0.125 1.453125 -0.25q1.984375 -0.234375 2.921875 -0.5625q0.015625 -0.34375 0.015625 -0.421875q0 -1.0 -0.46875 -1.421875q-0.625 -0.546875 -1.875 -0.546875q-1.15625 0 -1.703125 0.40625q-0.546875 0.40625 -0.8125 1.421875l-1.609375 -0.21875q0.21875 -1.015625 0.71875 -1.640625q0.5 -0.640625 1.453125 -0.984375q0.953125 -0.34375 2.1875 -0.34375q1.25 0 2.015625 0.296875q0.78125 0.28125 1.140625 0.734375q0.375 0.4375 0.515625 1.109375q0.078125 0.421875 0.078125 1.515625l0 2.1875q0 2.28125 0.109375 2.890625q0.109375 0.59375 0.40625 1.15625l-1.703125 0q-0.265625 -0.515625 -0.328125 -1.1875zm-0.140625 -3.671875q-0.890625 0.375 -2.671875 0.625q-1.015625 0.140625 -1.4375 0.328125q-0.421875 0.1875 -0.65625 0.53125q-0.21875 0.34375 -0.21875 0.78125q0 0.65625 0.5 1.09375q0.5 0.4375 1.453125 0.4375q0.9375 0 1.671875 -0.40625q0.75 -0.421875 1.09375 -1.140625q0.265625 -0.5625 0.265625 -1.640625l0 -0.609375zm3.5476074 1.96875l1.625 -0.25q0.125 0.96875 0.75 1.5q0.625 0.515625 1.75 0.515625q1.125 0 1.671875 -0.453125q0.546875 -0.46875 0.546875 -1.09375q0 -0.546875 -0.484375 -0.875q-0.328125 -0.21875 -1.671875 -0.546875q-1.8125 -0.46875 -2.515625 -0.796875q-0.6875 -0.328125 -1.046875 -0.90625q-0.359375 -0.59375 -0.359375 -1.3125q0 -0.640625 0.296875 -1.1875q0.296875 -0.5625 0.8125 -0.921875q0.375 -0.28125 1.03125 -0.46875q0.671875 -0.203125 1.421875 -0.203125q1.140625 0 2.0 0.328125q0.859375 0.328125 1.265625 0.890625q0.421875 0.5625 0.578125 1.5l-1.609375 0.21875q-0.109375 -0.75 -0.640625 -1.171875q-0.515625 -0.421875 -1.46875 -0.421875q-1.140625 0 -1.625 0.375q-0.46875 0.375 -0.46875 0.875q0 0.3125 0.1875 0.578125q0.203125 0.265625 0.640625 0.4375q0.234375 0.09375 1.4375 0.421875q1.75 0.453125 2.4375 0.75q0.6875 0.296875 1.078125 0.859375q0.390625 0.5625 0.390625 1.40625q0 0.828125 -0.484375 1.546875q-0.46875 0.71875 -1.375 1.125q-0.90625 0.390625 -2.046875 0.390625q-1.875 0 -2.875 -0.78125q-0.984375 -0.78125 -1.25 -2.328125zm13.5625 1.421875l0.234375 1.453125q-0.6875 0.140625 -1.234375 0.140625q-0.890625 0 -1.390625 -0.28125q-0.484375 -0.28125 -0.6875 -0.734375q-0.203125 -0.46875 -0.203125 -1.9375l0 -5.578125l-1.203125 0l0 -1.265625l1.203125 0l0 -2.390625l1.625 -0.984375l0 3.375l1.65625 0l0 1.265625l-1.65625 0l0 5.671875q0 0.6875 0.078125 0.890625q0.09375 0.203125 0.28125 0.328125q0.203125 0.109375 0.578125 0.109375q0.265625 0 0.71875 -0.0625zm8.230164 -1.640625l1.6875 0.203125q-0.40625 1.484375 -1.484375 2.3125q-1.078125 0.8125 -2.765625 0.8125q-2.125 0 -3.375 -1.296875q-1.234375 -1.3125 -1.234375 -3.671875q0 -2.453125 1.25 -3.796875q1.265625 -1.34375 3.265625 -1.34375q1.9375 0 3.15625 1.328125q1.234375 1.3125 1.234375 3.703125q0 0.15625 0 0.4375l-7.21875 0q0.09375 1.59375 0.90625 2.453125q0.8125 0.84375 2.015625 0.84375q0.90625 0 1.546875 -0.46875q0.640625 -0.484375 1.015625 -1.515625zm-5.390625 -2.65625l5.40625 0q-0.109375 -1.21875 -0.625 -1.828125q-0.78125 -0.953125 -2.03125 -0.953125q-1.125 0 -1.90625 0.765625q-0.765625 0.75 -0.84375 2.015625zm9.125732 5.765625l0 -9.671875l1.46875 0l0 1.46875q0.5625 -1.03125 1.03125 -1.359375q0.484375 -0.328125 1.0625 -0.328125q0.828125 0 1.6875 0.53125l-0.5625 1.515625q-0.609375 -0.359375 -1.203125 -0.359375q-0.546875 0 -0.96875 0.328125q-0.421875 0.328125 -0.609375 0.890625q-0.28125 0.875 -0.28125 1.921875l0 5.0625l-1.625 0z" fill-rule="nonzero"/><path fill="#000000" fill-opacity="0.0" d="m726.9488 455.99738l146.29926 0l0 48.75592l-146.29926 0z" fill-rule="evenodd"/><path fill="#000000" d="m806.3965 482.91736l0 -1.21875q-0.90625 1.4375 -2.703125 1.4375q-1.15625 0 -2.125 -0.640625q-0.96875 -0.640625 -1.5 -1.78125q-0.53125 -1.140625 -0.53125 -2.625q0 -1.453125 0.484375 -2.625q0.484375 -1.1875 1.4375 -1.8125q0.96875 -0.625 2.171875 -0.625q0.875 0 1.546875 0.375q0.6875 0.359375 1.109375 0.953125l0 -4.796875l1.640625 0l0 13.359375l-1.53125 0zm-5.171875 -4.828125q0 1.859375 0.78125 2.78125q0.78125 0.921875 1.84375 0.921875q1.078125 0 1.828125 -0.875q0.75 -0.890625 0.75 -2.6875q0 -1.984375 -0.765625 -2.90625q-0.765625 -0.9375 -1.890625 -0.9375q-1.078125 0 -1.8125 0.890625q-0.734375 0.890625 -0.734375 2.8125zm15.906982 1.71875l1.6875 0.203125q-0.40625 1.484375 -1.484375 2.3125q-1.078125 0.8125 -2.765625 0.8125q-2.125 0 -3.375 -1.296875q-1.234375 -1.3125 -1.234375 -3.671875q0 -2.453125 1.25 -3.796875q1.265625 -1.34375 3.265625 -1.34375q1.9375 0 3.15625 1.328125q1.234375 1.3125 1.234375 3.703125q0 0.15625 0 0.4375l-7.21875 0q0.09375 1.59375 0.90625 2.453125q0.8125 0.84375 2.015625 0.84375q0.90625 0 1.546875 -0.46875q0.640625 -0.484375 1.015625 -1.515625zm-5.390625 -2.65625l5.40625 0q-0.109375 -1.21875 -0.625 -1.828125q-0.78125 -0.953125 -2.03125 -0.953125q-1.125 0 -1.90625 0.765625q-0.765625 0.75 -0.84375 2.015625zm11.828857 5.765625l-3.6875 -9.671875l1.734375 0l2.078125 5.796875q0.328125 0.9375 0.625 1.9375q0.203125 -0.765625 0.609375 -1.828125l2.140625 -5.90625l1.6875 0l-3.65625 9.671875l-1.53125 0zm13.265625 -3.109375l1.6875 0.203125q-0.40625 1.484375 -1.484375 2.3125q-1.078125 0.8125 -2.765625 0.8125q-2.125 0 -3.375 -1.296875q-1.234375 -1.3125 -1.234375 -3.671875q0 -2.453125 1.25 -3.796875q1.265625 -1.34375 3.265625 -1.34375q1.9375 0 3.15625 1.328125q1.234375 1.3125 1.234375 3.703125q0 0.15625 0 0.4375l-7.21875 0q0.09375 1.59375 0.90625 2.453125q0.8125 0.84375 2.015625 0.84375q0.90625 0 1.546875 -0.46875q0.640625 -0.484375 1.015625 -1.515625zm-5.390625 -2.65625l5.40625 0q-0.109375 -1.21875 -0.625 -1.828125q-0.78125 -0.953125 -2.03125 -0.953125q-1.125 0 -1.90625 0.765625q-0.765625 0.75 -0.84375 2.015625zm9.094421 5.765625l0 -13.359375l1.640625 0l0 13.359375l-1.640625 0zm3.5823364 -4.84375q0 -2.6875 1.484375 -3.96875q1.25 -1.078125 3.046875 -1.078125q2.0 0 3.265625 1.3125q1.265625 1.296875 1.265625 3.609375q0 1.859375 -0.5625 2.9375q-0.5625 1.0625 -1.640625 1.65625q-1.0625 0.59375 -2.328125 0.59375q-2.03125 0 -3.28125 -1.296875q-1.25 -1.3125 -1.25 -3.765625zm1.6875 0q0 1.859375 0.796875 2.796875q0.8125 0.921875 2.046875 0.921875q1.21875 0 2.03125 -0.921875q0.8125 -0.9375 0.8125 -2.84375q0 -1.796875 -0.8125 -2.71875q-0.8125 -0.921875 -2.03125 -0.921875q-1.234375 0 -2.046875 0.921875q-0.796875 0.90625 -0.796875 2.765625zm9.297607 8.546875l0 -13.375l1.484375 0l0 1.25q0.53125 -0.734375 1.1875 -1.09375q0.671875 -0.375 1.625 -0.375q1.234375 0 2.171875 0.640625q0.953125 0.625 1.4375 1.796875q0.484375 1.15625 0.484375 2.546875q0 1.484375 -0.53125 2.671875q-0.53125 1.1875 -1.546875 1.828125q-1.015625 0.625 -2.140625 0.625q-0.8125 0 -1.46875 -0.34375q-0.65625 -0.34375 -1.0625 -0.875l0 4.703125l-1.640625 0zm1.484375 -8.484375q0 1.859375 0.75 2.765625q0.765625 0.890625 1.828125 0.890625q1.09375 0 1.875 -0.921875q0.78125 -0.9375 0.78125 -2.875q0 -1.84375 -0.765625 -2.765625q-0.75 -0.921875 -1.8125 -0.921875q-1.046875 0 -1.859375 0.984375q-0.796875 0.96875 -0.796875 2.84375z" fill-rule="nonzero"/><path fill="#000000" fill-opacity="0.0" d="m229.55643 315.04987l151.62204 0" fill-rule="evenodd"/><path stroke="#000000" stroke-width="1.0" stroke-linejoin="round" stroke-linecap="butt" d="m229.55643 315.04987l145.62204 0" fill-rule="evenodd"/><path fill="#000000" stroke="#000000" stroke-width="1.0" stroke-linecap="butt" d="m375.17847 316.7016l4.5381165 -1.6517334l-4.5381165 -1.6517334z" fill-rule="evenodd"/><path fill="#000000" fill-opacity="0.0" d="m218.02887 283.04987l169.35434 0l0 48.75592l-169.35434 0z" fill-rule="evenodd"/><path fill="#000000" d="m236.62401 297.56613l0 -1.609375l1.40625 0l0 1.609375l-1.40625 0zm0 9.84375l0 -8.296875l1.40625 0l0 8.296875l-1.40625 0zm2.9921875 -2.484375l1.390625 -0.21875q0.109375 0.84375 0.640625 1.296875q0.546875 0.4375 1.5 0.4375q0.96875 0 1.4375 -0.390625q0.46875 -0.40625 0.46875 -0.9375q0 -0.46875 -0.40625 -0.75q-0.296875 -0.1875 -1.4375 -0.46875q-1.546875 -0.390625 -2.15625 -0.671875q-0.59375 -0.296875 -0.90625 -0.796875q-0.296875 -0.5 -0.296875 -1.109375q0 -0.5625 0.25 -1.03125q0.25 -0.46875 0.6875 -0.78125q0.328125 -0.25 0.890625 -0.40625q0.578125 -0.171875 1.21875 -0.171875q0.984375 0 1.71875 0.28125q0.734375 0.28125 1.078125 0.765625q0.359375 0.46875 0.5 1.28125l-1.375 0.1875q-0.09375 -0.640625 -0.546875 -1.0q-0.453125 -0.359375 -1.265625 -0.359375q-0.96875 0 -1.390625 0.328125q-0.40625 0.3125 -0.40625 0.734375q0 0.28125 0.171875 0.5q0.171875 0.21875 0.53125 0.375q0.21875 0.078125 1.25 0.359375q1.484375 0.390625 2.078125 0.65625q0.59375 0.25 0.921875 0.734375q0.34375 0.484375 0.34375 1.203125q0 0.703125 -0.421875 1.328125q-0.40625 0.609375 -1.1875 0.953125q-0.765625 0.34375 -1.734375 0.34375q-1.625 0 -2.46875 -0.671875q-0.84375 -0.671875 -1.078125 -2.0zm8.0 0l1.390625 -0.21875q0.109375 0.84375 0.640625 1.296875q0.546875 0.4375 1.5 0.4375q0.96875 0 1.4375 -0.390625q0.46875 -0.40625 0.46875 -0.9375q0 -0.46875 -0.40625 -0.75q-0.296875 -0.1875 -1.4375 -0.46875q-1.546875 -0.390625 -2.15625 -0.671875q-0.59375 -0.296875 -0.90625 -0.796875q-0.296875 -0.5 -0.296875 -1.109375q0 -0.5625 0.25 -1.03125q0.25 -0.46875 0.6875 -0.78125q0.328125 -0.25 0.890625 -0.40625q0.578125 -0.171875 1.21875 -0.171875q0.984375 0 1.71875 0.28125q0.734375 0.28125 1.078125 0.765625q0.359375 0.46875 0.5 1.28125l-1.375 0.1875q-0.09375 -0.640625 -0.546875 -1.0q-0.453125 -0.359375 -1.265625 -0.359375q-0.96875 0 -1.390625 0.328125q-0.40625 0.3125 -0.40625 0.734375q0 0.28125 0.171875 0.5q0.171875 0.21875 0.53125 0.375q0.21875 0.078125 1.25 0.359375q1.484375 0.390625 2.078125 0.65625q0.59375 0.25 0.921875 0.734375q0.34375 0.484375 0.34375 1.203125q0 0.703125 -0.421875 1.328125q-0.40625 0.609375 -1.1875 0.953125q-0.765625 0.34375 -1.734375 0.34375q-1.625 0 -2.46875 -0.671875q-0.84375 -0.671875 -1.078125 -2.0zm13.999985 2.484375l0 -1.21875q-0.96875 1.40625 -2.640625 1.40625q-0.734375 0 -1.375 -0.28125q-0.625 -0.28125 -0.9375 -0.703125q-0.3125 -0.4375 -0.4375 -1.046875q-0.078125 -0.421875 -0.078125 -1.3125l0 -5.140625l1.40625 0l0 4.59375q0 1.109375 0.078125 1.484375q0.140625 0.5625 0.5625 0.875q0.4375 0.3125 1.0625 0.3125q0.640625 0 1.1875 -0.3125q0.5625 -0.328125 0.78125 -0.890625q0.234375 -0.5625 0.234375 -1.625l0 -4.4375l1.40625 0l0 8.296875l-1.25 0zm9.1328125 -2.671875l1.453125 0.171875q-0.34375 1.28125 -1.28125 1.984375q-0.921875 0.703125 -2.359375 0.703125q-1.828125 0 -2.890625 -1.125q-1.0625 -1.125 -1.0625 -3.140625q0 -2.09375 1.078125 -3.25q1.078125 -1.15625 2.796875 -1.15625q1.65625 0 2.703125 1.140625q1.0625 1.125 1.0625 3.171875q0 0.125 0 0.375l-6.1875 0q0.078125 1.375 0.765625 2.109375q0.703125 0.71875 1.734375 0.71875q0.78125 0 1.328125 -0.40625q0.546875 -0.40625 0.859375 -1.296875zm-4.609375 -2.28125l4.625 0q-0.09375 -1.046875 -0.53125 -1.5625q-0.671875 -0.8125 -1.734375 -0.8125q-0.96875 0 -1.640625 0.65625q-0.65625 0.640625 -0.71875 1.71875zm7.2890625 1.515625l0 -1.421875l4.3125 0l0 1.421875l-4.3125 0zm10.78125 3.4375l-1.40625 0l0 -8.96875q-0.515625 0.484375 -1.34375 0.96875q-0.8125 0.484375 -1.46875 0.734375l0 -1.359375q1.171875 -0.5625 2.046875 -1.34375q0.890625 -0.796875 1.265625 -1.53125l0.90625 0l0 11.5zm10.9921875 -1.359375l0 1.359375l-7.578125 0q-0.015625 -0.515625 0.171875 -0.984375q0.28125 -0.765625 0.921875 -1.515625q0.640625 -0.75 1.84375 -1.734375q1.859375 -1.53125 2.515625 -2.421875q0.65625 -0.90625 0.65625 -1.703125q0 -0.828125 -0.59375 -1.40625q-0.59375 -0.578125 -1.5625 -0.578125q-1.015625 0 -1.625 0.609375q-0.609375 0.609375 -0.609375 1.6875l-1.453125 -0.140625q0.15625 -1.625 1.125 -2.46875q0.96875 -0.84375 2.59375 -0.84375q1.65625 0 2.609375 0.921875q0.96875 0.90625 0.96875 2.25q0 0.6875 -0.28125 1.359375q-0.28125 0.65625 -0.9375 1.390625q-0.65625 0.734375 -2.171875 2.015625q-1.265625 1.0625 -1.625 1.453125q-0.359375 0.375 -0.59375 0.75l5.625 0zm1.5078125 -1.671875l1.40625 -0.1875q0.25 1.203125 0.828125 1.734375q0.578125 0.515625 1.421875 0.515625q0.984375 0 1.671875 -0.6875q0.6875 -0.6875 0.6875 -1.703125q0 -0.96875 -0.640625 -1.59375q-0.625 -0.625 -1.609375 -0.625q-0.390625 0 -0.984375 0.15625l0.15625 -1.234375q0.140625 0.015625 0.21875 0.015625q0.90625 0 1.625 -0.46875q0.71875 -0.46875 0.71875 -1.453125q0 -0.765625 -0.53125 -1.265625q-0.515625 -0.515625 -1.34375 -0.515625q-0.828125 0 -1.375 0.515625q-0.546875 0.515625 -0.703125 1.546875l-1.40625 -0.25q0.265625 -1.421875 1.171875 -2.1875q0.921875 -0.78125 2.28125 -0.78125q0.9375 0 1.71875 0.40625q0.796875 0.390625 1.203125 1.09375q0.421875 0.6875 0.421875 1.46875q0 0.75 -0.40625 1.359375q-0.390625 0.609375 -1.171875 0.96875q1.015625 0.234375 1.578125 0.96875q0.5625 0.734375 0.5625 1.84375q0 1.5 -1.09375 2.546875q-1.09375 1.046875 -2.765625 1.046875q-1.5 0 -2.5 -0.890625q-1.0 -0.90625 -1.140625 -2.34375zm16.421875 6.40625q-1.171875 -1.46875 -1.984375 -3.4375q-0.796875 -1.984375 -0.796875 -4.09375q0 -1.859375 0.609375 -3.5625q0.703125 -1.96875 2.171875 -3.9375l1.0 0q-0.9375 1.625 -1.25 2.328125q-0.46875 1.078125 -0.75 2.25q-0.328125 1.453125 -0.328125 2.9375q0 3.75 2.328125 7.515625l-1.0 0zm2.96875 -3.375l0 -7.203125l-1.234375 0l0 -1.09375l1.234375 0l0 -0.890625q0 -0.828125 0.15625 -1.234375q0.203125 -0.546875 0.703125 -0.890625q0.515625 -0.34375 1.4375 -0.34375q0.59375 0 1.3125 0.140625l-0.203125 1.234375q-0.4375 -0.078125 -0.828125 -0.078125q-0.640625 0 -0.90625 0.28125q-0.265625 0.265625 -0.265625 1.015625l0 0.765625l1.609375 0l0 1.09375l-1.609375 0l0 7.203125l-1.40625 0zm9.7890625 -2.671875l1.453125 0.171875q-0.34375 1.28125 -1.28125 1.984375q-0.921875 0.703125 -2.359375 0.703125q-1.828125 0 -2.890625 -1.125q-1.0625 -1.125 -1.0625 -3.140625q0 -2.09375 1.078125 -3.25q1.078125 -1.15625 2.796875 -1.15625q1.65625 0 2.703125 1.140625q1.0625 1.125 1.0625 3.171875q0 0.125 0 0.375l-6.1875 0q0.078125 1.375 0.765625 2.109375q0.703125 0.71875 1.734375 0.71875q0.78125 0 1.328125 -0.40625q0.546875 -0.40625 0.859375 -1.296875zm-4.609375 -2.28125l4.625 0q-0.09375 -1.046875 -0.53125 -1.5625q-0.671875 -0.8125 -1.734375 -0.8125q-0.96875 0 -1.640625 0.65625q-0.65625 0.640625 -0.71875 1.71875zm13.2421875 3.921875q-0.78125 0.671875 -1.5 0.953125q-0.71875 0.265625 -1.546875 0.265625q-1.375 0 -2.109375 -0.671875q-0.734375 -0.671875 -0.734375 -1.703125q0 -0.609375 0.28125 -1.109375q0.28125 -0.515625 0.71875 -0.8125q0.453125 -0.3125 1.015625 -0.46875q0.421875 -0.109375 1.25 -0.203125q1.703125 -0.203125 2.515625 -0.484375q0 -0.296875 0 -0.375q0 -0.859375 -0.390625 -1.203125q-0.546875 -0.484375 -1.609375 -0.484375q-0.984375 0 -1.46875 0.359375q-0.46875 0.34375 -0.6875 1.21875l-1.375 -0.1875q0.1875 -0.875 0.609375 -1.421875q0.4375 -0.546875 1.25 -0.828125q0.8125 -0.296875 1.875 -0.296875q1.0625 0 1.71875 0.25q0.671875 0.25 0.984375 0.625q0.3125 0.375 0.4375 0.953125q0.078125 0.359375 0.078125 1.296875l0 1.875q0 1.96875 0.078125 2.484375q0.09375 0.515625 0.359375 1.0l-1.46875 0q-0.21875 -0.4375 -0.28125 -1.03125zm-0.109375 -3.140625q-0.765625 0.3125 -2.296875 0.53125q-0.875 0.125 -1.234375 0.28125q-0.359375 0.15625 -0.5625 0.46875q-0.1875 0.296875 -0.1875 0.65625q0 0.5625 0.421875 0.9375q0.4375 0.375 1.25 0.375q0.8125 0 1.4375 -0.34375q0.640625 -0.359375 0.9375 -0.984375q0.234375 -0.46875 0.234375 -1.40625l0 -0.515625zm6.6640625 2.90625l0.203125 1.25q-0.59375 0.125 -1.0625 0.125q-0.765625 0 -1.1875 -0.234375q-0.421875 -0.25 -0.59375 -0.640625q-0.171875 -0.40625 -0.171875 -1.671875l0 -4.765625l-1.03125 0l0 -1.09375l1.03125 0l0 -2.0625l1.40625 -0.84375l0 2.90625l1.40625 0l0 1.09375l-1.40625 0l0 4.84375q0 0.609375 0.0625 0.78125q0.078125 0.171875 0.25 0.28125q0.171875 0.09375 0.484375 0.09375q0.234375 0 0.609375 -0.0625zm6.8203125 1.265625l0 -1.21875q-0.96875 1.40625 -2.640625 1.40625q-0.734375 0 -1.375 -0.28125q-0.625 -0.28125 -0.9375 -0.703125q-0.3125 -0.4375 -0.4375 -1.046875q-0.078125 -0.421875 -0.078125 -1.3125l0 -5.140625l1.40625 0l0 4.59375q0 1.109375 0.078125 1.484375q0.140625 0.5625 0.5625 0.875q0.4375 0.3125 1.0625 0.3125q0.640625 0 1.1875 -0.3125q0.5625 -0.328125 0.78125 -0.890625q0.234375 -0.5625 0.234375 -1.625l0 -4.4375l1.40625 0l0 8.296875l-1.25 0zm3.4453125 0l0 -8.296875l1.265625 0l0 1.25q0.484375 -0.875 0.890625 -1.15625q0.40625 -0.28125 0.90625 -0.28125q0.703125 0 1.4375 0.453125l-0.484375 1.296875q-0.515625 -0.296875 -1.03125 -0.296875q-0.453125 0 -0.828125 0.28125q-0.359375 0.265625 -0.515625 0.765625q-0.234375 0.75 -0.234375 1.640625l0 4.34375l-1.40625 0zm11.015625 -2.671875l1.453125 0.171875q-0.34375 1.28125 -1.28125 1.984375q-0.921875 0.703125 -2.359375 0.703125q-1.828125 0 -2.890625 -1.125q-1.0625 -1.125 -1.0625 -3.140625q0 -2.09375 1.078125 -3.25q1.078125 -1.15625 2.796875 -1.15625q1.65625 0 2.703125 1.140625q1.0625 1.125 1.0625 3.171875q0 0.125 0 0.375l-6.1875 0q0.078125 1.375 0.765625 2.109375q0.703125 0.71875 1.734375 0.71875q0.78125 0 1.328125 -0.40625q0.546875 -0.40625 0.859375 -1.296875zm-4.609375 -2.28125l4.625 0q-0.09375 -1.046875 -0.53125 -1.5625q-0.671875 -0.8125 -1.734375 -0.8125q-0.96875 0 -1.640625 0.65625q-0.65625 0.640625 -0.71875 1.71875zm8.7578125 8.328125l-1.015625 0q2.34375 -3.765625 2.34375 -7.515625q0 -1.46875 -0.34375 -2.921875q-0.265625 -1.171875 -0.734375 -2.25q-0.3125 -0.703125 -1.265625 -2.34375l1.015625 0q1.46875 1.96875 2.171875 3.9375q0.59375 1.703125 0.59375 3.5625q0 2.109375 -0.8125 4.09375q-0.796875 1.96875 -1.953125 3.4375z" fill-rule="nonzero"/><path fill="#000000" fill-opacity="0.0" d="m382.06824 317.63516l81.85828 141.7638" fill-rule="evenodd"/><path stroke="#000000" stroke-width="1.0" stroke-linejoin="round" stroke-linecap="butt" stroke-dasharray="1.0,3.0" d="m382.06824 317.63516l80.14456 138.79593" fill-rule="evenodd"/><path fill="#000000" stroke="#000000" stroke-width="1.0" stroke-linecap="butt" d="m462.2128 456.4311l-1.5362244 -0.41152954l2.518921 2.1133728l-0.571167 -3.2380676z" fill-rule="evenodd"/><path fill="#000000" fill-opacity="0.0" d="m85.85302 458.61942l140.53543 -140.53543" fill-rule="evenodd"/><path stroke="#000000" stroke-width="1.0" stroke-linejoin="round" stroke-linecap="butt" stroke-dasharray="1.0,3.0" d="m85.85302 458.61942l138.11212 -138.11212" fill-rule="evenodd"/><path fill="#000000" stroke="#000000" stroke-width="1.0" stroke-linecap="butt" d="m223.96513 320.5073l0 1.5904236l1.3896027 -2.980011l-2.9799957 1.3895874z" fill-rule="evenodd"/><path fill="#000000" fill-opacity="0.0" d="m413.55643 195.04987l193.73227 0" fill-rule="evenodd"/><path stroke="#000000" stroke-width="1.0" stroke-linejoin="round" stroke-linecap="butt" d="m413.55643 195.04987l187.73227 0" fill-rule="evenodd"/><path fill="#000000" stroke="#000000" stroke-width="1.0" stroke-linecap="butt" d="m601.2887 196.7016l4.538086 -1.6517334l-4.538086 -1.6517334z" fill-rule="evenodd"/><path fill="#000000" fill-opacity="0.0" d="m426.02887 163.04987l169.35431 0l0 48.755905l-169.35431 0z" fill-rule="evenodd"/><path fill="#000000" d="m444.624 177.56612l0 -1.609375l1.40625 0l0 1.609375l-1.40625 0zm0 9.84375l0 -8.296875l1.40625 0l0 8.296875l-1.40625 0zm2.9921875 -2.484375l1.390625 -0.21875q0.109375 0.84375 0.640625 1.296875q0.546875 0.4375 1.5 0.4375q0.96875 0 1.4375 -0.390625q0.46875 -0.40625 0.46875 -0.9375q0 -0.46875 -0.40625 -0.75q-0.296875 -0.1875 -1.4375 -0.46875q-1.546875 -0.390625 -2.15625 -0.671875q-0.59375 -0.296875 -0.90625 -0.796875q-0.296875 -0.5 -0.296875 -1.109375q0 -0.5625 0.25 -1.03125q0.25 -0.46875 0.6875 -0.78125q0.328125 -0.25 0.890625 -0.40625q0.578125 -0.171875 1.21875 -0.171875q0.984375 0 1.71875 0.28125q0.734375 0.28125 1.078125 0.765625q0.359375 0.46875 0.5 1.28125l-1.375 0.1875q-0.09375 -0.640625 -0.546875 -1.0q-0.453125 -0.359375 -1.265625 -0.359375q-0.96875 0 -1.390625 0.328125q-0.40625 0.3125 -0.40625 0.734375q0 0.28125 0.171875 0.5q0.171875 0.21875 0.53125 0.375q0.21875 0.078125 1.25 0.359375q1.484375 0.390625 2.078125 0.65625q0.59375 0.25 0.921875 0.734375q0.34375 0.484375 0.34375 1.203125q0 0.703125 -0.421875 1.328125q-0.40625 0.609375 -1.1875 0.953125q-0.765625 0.34375 -1.734375 0.34375q-1.625 0 -2.46875 -0.671875q-0.84375 -0.671875 -1.078125 -2.0zm8.0 0l1.390625 -0.21875q0.109375 0.84375 0.640625 1.296875q0.546875 0.4375 1.5 0.4375q0.96875 0 1.4375 -0.390625q0.46875 -0.40625 0.46875 -0.9375q0 -0.46875 -0.40625 -0.75q-0.296875 -0.1875 -1.4375 -0.46875q-1.546875 -0.390625 -2.15625 -0.671875q-0.59375 -0.296875 -0.90625 -0.796875q-0.296875 -0.5 -0.296875 -1.109375q0 -0.5625 0.25 -1.03125q0.25 -0.46875 0.6875 -0.78125q0.328125 -0.25 0.890625 -0.40625q0.578125 -0.171875 1.21875 -0.171875q0.984375 0 1.71875 0.28125q0.734375 0.28125 1.078125 0.765625q0.359375 0.46875 0.5 1.28125l-1.375 0.1875q-0.09375 -0.640625 -0.546875 -1.0q-0.453125 -0.359375 -1.265625 -0.359375q-0.96875 0 -1.390625 0.328125q-0.40625 0.3125 -0.40625 0.734375q0 0.28125 0.171875 0.5q0.171875 0.21875 0.53125 0.375q0.21875 0.078125 1.25 0.359375q1.484375 0.390625 2.078125 0.65625q0.59375 0.25 0.921875 0.734375q0.34375 0.484375 0.34375 1.203125q0 0.703125 -0.421875 1.328125q-0.40625 0.609375 -1.1875 0.953125q-0.765625 0.34375 -1.734375 0.34375q-1.625 0 -2.46875 -0.671875q-0.84375 -0.671875 -1.078125 -2.0zm14.0 2.484375l0 -1.21875q-0.96875 1.40625 -2.640625 1.40625q-0.734375 0 -1.375 -0.28125q-0.625 -0.28125 -0.9375 -0.703125q-0.3125 -0.4375 -0.4375 -1.046875q-0.078125 -0.421875 -0.078125 -1.3125l0 -5.140625l1.40625 0l0 4.59375q0 1.109375 0.078125 1.484375q0.140625 0.5625 0.5625 0.875q0.4375 0.3125 1.0625 0.3125q0.640625 0 1.1875 -0.3125q0.5625 -0.328125 0.78125 -0.890625q0.234375 -0.5625 0.234375 -1.625l0 -4.4375l1.40625 0l0 8.296875l-1.25 0zm9.1328125 -2.671875l1.453125 0.171875q-0.34375 1.28125 -1.28125 1.984375q-0.921875 0.703125 -2.359375 0.703125q-1.828125 0 -2.890625 -1.125q-1.0625 -1.125 -1.0625 -3.140625q0 -2.09375 1.078125 -3.25q1.078125 -1.15625 2.796875 -1.15625q1.65625 0 2.703125 1.140625q1.0625 1.125 1.0625 3.171875q0 0.125 0 0.375l-6.1875 0q0.078125 1.375 0.765625 2.109375q0.703125 0.71875 1.734375 0.71875q0.78125 0 1.328125 -0.40625q0.546875 -0.40625 0.859375 -1.296875zm-4.609375 -2.28125l4.625 0q-0.09375 -1.046875 -0.53125 -1.5625q-0.671875 -0.8125 -1.734375 -0.8125q-0.96875 0 -1.640625 0.65625q-0.65625 0.640625 -0.71875 1.71875zm7.2890625 1.515625l0 -1.421875l4.3125 0l0 1.421875l-4.3125 0zm9.984375 3.4375l0 -2.75l-4.96875 0l0 -1.28125l5.234375 -7.421875l1.140625 0l0 7.421875l1.546875 0l0 1.28125l-1.546875 0l0 2.75l-1.40625 0zm0 -4.03125l0 -5.171875l-3.578125 5.171875l3.578125 0zm4.3984375 1.03125l1.46875 -0.125q0.171875 1.078125 0.765625 1.625q0.59375 0.53125 1.4375 0.53125q1.015625 0 1.71875 -0.765625q0.703125 -0.765625 0.703125 -2.03125q0 -1.203125 -0.671875 -1.890625q-0.671875 -0.703125 -1.765625 -0.703125q-0.6875 0 -1.234375 0.3125q-0.546875 0.3125 -0.859375 0.796875l-1.3125 -0.171875l1.109375 -5.875l5.6875 0l0 1.34375l-4.5625 0l-0.625 3.078125q1.03125 -0.71875 2.171875 -0.71875q1.5 0 2.53125 1.046875q1.03125 1.03125 1.03125 2.65625q0 1.5625 -0.90625 2.6875q-1.109375 1.40625 -3.015625 1.40625q-1.5625 0 -2.546875 -0.875q-0.984375 -0.890625 -1.125 -2.328125zm16.195343 -5.65625l-1.4062805 0.109375q-0.1875 -0.828125 -0.53125 -1.203125q-0.5625 -0.59375 -1.40625 -0.59375q-0.671875 0 -1.171875 0.375q-0.671875 0.484375 -1.0625 1.421875q-0.375 0.921875 -0.390625 2.640625q0.515625 -0.78125 1.25 -1.15625q0.734375 -0.375 1.53125 -0.375q1.40625 0 2.390625 1.046875q1.0000305 1.03125 1.0000305 2.671875q0 1.078125 -0.46878052 2.0q-0.46875 0.921875 -1.28125 1.421875q-0.8125 0.5 -1.84375 0.5q-1.75 0 -2.859375 -1.296875q-1.109375 -1.296875 -1.109375 -4.265625q0 -3.328125 1.21875 -4.828125q1.078125 -1.3125 2.890625 -1.3125q1.34375 0 2.203125 0.765625q0.875 0.75 1.0469055 2.078125zm-5.7500305 4.9375q0 0.734375 0.3125 1.40625q0.3125 0.65625 0.859375 1.0q0.5625 0.34375 1.171875 0.34375q0.890625 0 1.53125 -0.71875q0.640625 -0.71875 0.640625 -1.953125q0 -1.1875 -0.640625 -1.859375q-0.625 -0.6875 -1.59375 -0.6875q-0.953125 0 -1.625 0.6875q-0.65625 0.671875 -0.65625 1.78125zm14.8750305 7.09375q-1.171875 -1.46875 -1.984375 -3.4375q-0.796875 -1.984375 -0.796875 -4.09375q0 -1.859375 0.609375 -3.5625q0.703125 -1.96875 2.171875 -3.9375l1.0 0q-0.9375 1.625 -1.25 2.328125q-0.46875 1.078125 -0.75 2.25q-0.328125 1.453125 -0.328125 2.9375q0 3.75 2.328125 7.515625l-1.0 0zm2.96875 -3.375l0 -7.203125l-1.234375 0l0 -1.09375l1.234375 0l0 -0.890625q0 -0.828125 0.15625 -1.234375q0.203125 -0.546875 0.703125 -0.890625q0.515625 -0.34375 1.4375 -0.34375q0.59375 0 1.3125 0.140625l-0.203125 1.234375q-0.4375 -0.078125 -0.828125 -0.078125q-0.640625 0 -0.90625 0.28125q-0.265625 0.265625 -0.265625 1.015625l0 0.765625l1.609375 0l0 1.09375l-1.609375 0l0 7.203125l-1.40625 0zm9.7890625 -2.671875l1.453125 0.171875q-0.34375 1.28125 -1.28125 1.984375q-0.921875 0.703125 -2.359375 0.703125q-1.828125 0 -2.890625 -1.125q-1.0625 -1.125 -1.0625 -3.140625q0 -2.09375 1.078125 -3.25q1.078125 -1.15625 2.796875 -1.15625q1.65625 0 2.703125 1.140625q1.0625 1.125 1.0625 3.171875q0 0.125 0 0.375l-6.1875 0q0.078125 1.375 0.765625 2.109375q0.703125 0.71875 1.734375 0.71875q0.78125 0 1.328125 -0.40625q0.546875 -0.40625 0.859375 -1.296875zm-4.609375 -2.28125l4.625 0q-0.09375 -1.046875 -0.53125 -1.5625q-0.671875 -0.8125 -1.734375 -0.8125q-0.96875 0 -1.640625 0.65625q-0.65625 0.640625 -0.71875 1.71875zm13.2421875 3.921875q-0.78125 0.671875 -1.5 0.953125q-0.71875 0.265625 -1.546875 0.265625q-1.375 0 -2.109375 -0.671875q-0.734375 -0.671875 -0.734375 -1.703125q0 -0.609375 0.28125 -1.109375q0.28125 -0.515625 0.71875 -0.8125q0.453125 -0.3125 1.015625 -0.46875q0.421875 -0.109375 1.25 -0.203125q1.703125 -0.203125 2.515625 -0.484375q0 -0.296875 0 -0.375q0 -0.859375 -0.390625 -1.203125q-0.546875 -0.484375 -1.609375 -0.484375q-0.984375 0 -1.46875 0.359375q-0.46875 0.34375 -0.6875 1.21875l-1.375 -0.1875q0.1875 -0.875 0.609375 -1.421875q0.4375 -0.546875 1.25 -0.828125q0.8125 -0.296875 1.875 -0.296875q1.0625 0 1.71875 0.25q0.671875 0.25 0.984375 0.625q0.3125 0.375 0.4375 0.953125q0.078125 0.359375 0.078125 1.296875l0 1.875q0 1.96875 0.078125 2.484375q0.09375 0.515625 0.359375 1.0l-1.46875 0q-0.21875 -0.4375 -0.28125 -1.03125zm-0.109375 -3.140625q-0.765625 0.3125 -2.296875 0.53125q-0.875 0.125 -1.234375 0.28125q-0.359375 0.15625 -0.5625 0.46875q-0.1875 0.296875 -0.1875 0.65625q0 0.5625 0.421875 0.9375q0.4375 0.375 1.25 0.375q0.8125 0 1.4375 -0.34375q0.640625 -0.359375 0.9375 -0.984375q0.234375 -0.46875 0.234375 -1.40625l0 -0.515625zm6.6640625 2.90625l0.203125 1.25q-0.59375 0.125 -1.0625 0.125q-0.765625 0 -1.1875 -0.234375q-0.421875 -0.25 -0.59375 -0.640625q-0.171875 -0.40625 -0.171875 -1.671875l0 -4.765625l-1.03125 0l0 -1.09375l1.03125 0l0 -2.0625l1.40625 -0.84375l0 2.90625l1.40625 0l0 1.09375l-1.40625 0l0 4.84375q0 0.609375 0.0625 0.78125q0.078125 0.171875 0.25 0.28125q0.171875 0.09375 0.484375 0.09375q0.234375 0 0.609375 -0.0625zm6.8203125 1.265625l0 -1.21875q-0.96875 1.40625 -2.640625 1.40625q-0.734375 0 -1.375 -0.28125q-0.625 -0.28125 -0.9375 -0.703125q-0.3125 -0.4375 -0.4375 -1.046875q-0.078125 -0.421875 -0.078125 -1.3125l0 -5.140625l1.40625 0l0 4.59375q0 1.109375 0.078125 1.484375q0.140625 0.5625 0.5625 0.875q0.4375 0.3125 1.0625 0.3125q0.640625 0 1.1875 -0.3125q0.5625 -0.328125 0.78125 -0.890625q0.234375 -0.5625 0.234375 -1.625l0 -4.4375l1.40625 0l0 8.296875l-1.25 0zm3.4453125 0l0 -8.296875l1.265625 0l0 1.25q0.484375 -0.875 0.890625 -1.15625q0.40625 -0.28125 0.90625 -0.28125q0.703125 0 1.4375 0.453125l-0.484375 1.296875q-0.515625 -0.296875 -1.03125 -0.296875q-0.453125 0 -0.828125 0.28125q-0.359375 0.265625 -0.515625 0.765625q-0.234375 0.75 -0.234375 1.640625l0 4.34375l-1.40625 0zm11.015625 -2.671875l1.453125 0.171875q-0.34375 1.28125 -1.28125 1.984375q-0.921875 0.703125 -2.359375 0.703125q-1.828125 0 -2.890625 -1.125q-1.0625 -1.125 -1.0625 -3.140625q0 -2.09375 1.078125 -3.25q1.078125 -1.15625 2.796875 -1.15625q1.65625 0 2.703125 1.140625q1.0625 1.125 1.0625 3.171875q0 0.125 0 0.375l-6.1875 0q0.078125 1.375 0.765625 2.109375q0.703125 0.71875 1.734375 0.71875q0.78125 0 1.328125 -0.40625q0.546875 -0.40625 0.859375 -1.296875zm-4.609375 -2.28125l4.625 0q-0.09375 -1.046875 -0.53125 -1.5625q-0.671875 -0.8125 -1.734375 -0.8125q-0.96875 0 -1.640625 0.65625q-0.65625 0.640625 -0.71875 1.71875zm8.7578125 8.328125l-1.015625 0q2.34375 -3.765625 2.34375 -7.515625q0 -1.46875 -0.34375 -2.921875q-0.265625 -1.171875 -0.734375 -2.25q-0.3125 -0.703125 -1.265625 -2.34375l1.015625 0q1.46875 1.96875 2.171875 3.9375q0.59375 1.703125 0.59375 3.5625q0 2.109375 -0.8125 4.09375q-0.796875 1.96875 -1.953125 3.4375z" fill-rule="nonzero"/><path fill="#000000" fill-opacity="0.0" d="m606.06824 197.63518l127.24408 262.77167" fill-rule="evenodd"/><path stroke="#000000" stroke-width="1.0" stroke-linejoin="round" stroke-linecap="butt" stroke-dasharray="1.0,3.0" d="m606.06824 197.63518l125.75049 259.6872" fill-rule="evenodd"/><path fill="#000000" stroke="#000000" stroke-width="1.0" stroke-linecap="butt" d="m731.8187 457.32236l-1.5023193 -0.5220337l2.3587646 2.290741l-0.33441162 -3.270996z" fill-rule="evenodd"/><path fill="#000000" fill-opacity="0.0" d="m244.62993 458.61942l165.73228 -260.53543" fill-rule="evenodd"/><path stroke="#000000" stroke-width="1.0" stroke-linejoin="round" stroke-linecap="butt" stroke-dasharray="1.0,3.0" d="m244.62993 458.61942l163.89287 -257.6438" fill-rule="evenodd"/><path fill="#000000" stroke="#000000" stroke-width="1.0" stroke-linecap="butt" d="m408.5228 200.9756l0.34527588 1.552475l0.70947266 -3.2106018l-2.6072388 2.0034027z" fill-rule="evenodd"/><path fill="#000000" fill-opacity="0.0" d="m465.1811 458.61942l110.17322 -262.45667" fill-rule="evenodd"/><path stroke="#000000" stroke-width="1.0" stroke-linejoin="round" stroke-linecap="butt" stroke-dasharray="1.0,3.0" d="m465.1811 458.61942l108.84674 -259.29672" fill-rule="evenodd"/><path fill="#000000" stroke="#000000" stroke-width="1.0" stroke-linecap="butt" d="m574.02783 199.3227l0.6016846 1.4722137l0.15899658 -3.2842255l-2.2328491 2.4136658z" fill-rule="evenodd"/><path fill="#000000" fill-opacity="0.0" d="m754.5801 463.0551l26.614136 64.72443" fill-rule="evenodd"/><path stroke="#000000" stroke-width="1.0" stroke-linejoin="round" stroke-linecap="butt" stroke-dasharray="1.0,3.0" d="m754.5801 463.0551l25.310852 61.55481" fill-rule="evenodd"/><path fill="#000000" stroke="#000000" stroke-width="1.0" stroke-linecap="butt" d="m779.8909 524.6099l-1.4677734 -0.61242676l2.215088 2.4299927l-0.13494873 -3.2853394z" fill-rule="evenodd"/><path fill="#000000" fill-opacity="0.0" d="m923.0551 525.12335l-869.8583 0" fill-rule="evenodd"/><path stroke="#000000" stroke-width="1.0" stroke-linejoin="round" stroke-linecap="butt" d="m917.0551 525.12335l-863.8583 0" fill-rule="evenodd"/><path fill="#000000" stroke="#000000" stroke-width="1.0" stroke-linecap="butt" d="m917.0551 526.7751l4.538086 -1.6517334l-4.538086 -1.6517334z" fill-rule="evenodd"/><path fill="#000000" fill-opacity="0.0" d="m923.0551 461.12335l-869.8583 0" fill-rule="evenodd"/><path stroke="#000000" stroke-width="1.0" stroke-linejoin="round" stroke-linecap="butt" d="m917.0551 461.12335l-863.8583 0" fill-rule="evenodd"/><path fill="#000000" stroke="#000000" stroke-width="1.0" stroke-linecap="butt" d="m917.0551 462.7751l4.538086 -1.6517334l-4.538086 -1.6517334z" fill-rule="evenodd"/><path fill="#000000" fill-opacity="0.0" d="m339.6063 342.81104l119.71655 0l0 34.551178l-119.71655 0z" fill-rule="evenodd"/><path fill="#000000" d="m367.55228 364.61102l0 -9.546875l4.234375 0q1.265625 0 1.921875 0.265625q0.671875 0.25 1.0625 0.90625q0.40625 0.65625 0.40625 1.4375q0 1.015625 -0.65625 1.71875q-0.65625 0.6875 -2.03125 0.875q0.5 0.25 0.765625 0.484375q0.546875 0.5 1.046875 1.265625l1.65625 2.59375l-1.578125 0l-1.265625 -1.984375q-0.5625 -0.859375 -0.921875 -1.3125q-0.34375 -0.453125 -0.640625 -0.640625q-0.28125 -0.1875 -0.5625 -0.25q-0.21875 -0.046875 -0.703125 -0.046875l-1.46875 0l0 4.234375l-1.265625 0zm1.265625 -5.328125l2.71875 0q0.859375 0 1.34375 -0.171875q0.484375 -0.1875 0.734375 -0.578125q0.265625 -0.390625 0.265625 -0.859375q0 -0.671875 -0.5 -1.109375q-0.484375 -0.4375 -1.546875 -0.4375l-3.015625 0l0 3.15625zm12.922028 3.109375l1.203125 0.140625q-0.28125 1.0625 -1.0625 1.65625q-0.765625 0.578125 -1.96875 0.578125q-1.515625 0 -2.40625 -0.9375q-0.890625 -0.9375 -0.890625 -2.609375q0 -1.75 0.890625 -2.703125q0.90625 -0.96875 2.34375 -0.96875q1.390625 0 2.265625 0.9375q0.875 0.9375 0.875 2.65625q0 0.109375 0 0.3125l-5.15625 0q0.0625 1.140625 0.640625 1.75q0.578125 0.59375 1.4375 0.59375q0.65625 0 1.109375 -0.328125q0.453125 -0.34375 0.71875 -1.078125zm-3.84375 -1.90625l3.859375 0q-0.078125 -0.859375 -0.4375 -1.296875q-0.5625 -0.6875 -1.453125 -0.6875q-0.8125 0 -1.359375 0.546875q-0.546875 0.53125 -0.609375 1.4375zm8.443726 4.125l-2.625 -6.90625l1.234375 0l1.484375 4.140625q0.234375 0.65625 0.4375 1.390625q0.15625 -0.546875 0.4375 -1.3125l1.53125 -4.21875l1.21875 0l-2.625 6.90625l-1.09375 0zm4.7578125 -8.1875l0 -1.359375l1.171875 0l0 1.359375l-1.171875 0zm0 8.1875l0 -6.90625l1.171875 0l0 6.90625l-1.171875 0zm7.67984 -2.21875l1.203125 0.140625q-0.28125 1.0625 -1.0625 1.65625q-0.765625 0.578125 -1.96875 0.578125q-1.515625 0 -2.40625 -0.9375q-0.890625 -0.9375 -0.890625 -2.609375q0 -1.75 0.890625 -2.703125q0.90625 -0.96875 2.34375 -0.96875q1.390625 0 2.265625 0.9375q0.875 0.9375 0.875 2.65625q0 0.109375 0 0.3125l-5.15625 0q0.0625 1.140625 0.640625 1.75q0.578125 0.59375 1.4375 0.59375q0.65625 0 1.109375 -0.328125q0.453125 -0.34375 0.71875 -1.078125zm-3.84375 -1.90625l3.859375 0q-0.078125 -0.859375 -0.4375 -1.296875q-0.5625 -0.6875 -1.453125 -0.6875q-0.8125 0 -1.359375 0.546875q-0.546875 0.53125 -0.609375 1.4375zm7.8031006 4.125l-2.125 -6.90625l1.21875 0l1.09375 3.984375l0.421875 1.484375q0.015625 -0.109375 0.359375 -1.421875l1.09375 -4.046875l1.203125 0l1.03125 4.0l0.34375 1.328125l0.40625 -1.34375l1.171875 -3.984375l1.140625 0l-2.15625 6.90625l-1.21875 0l-1.09375 -4.140625l-0.265625 -1.171875l-1.40625 5.3125l-1.21875 0zm12.2031555 0l0 -9.546875l3.59375 0q0.953125 0 1.453125 0.09375q0.703125 0.125 1.171875 0.453125q0.484375 0.328125 0.765625 0.921875q0.296875 0.59375 0.296875 1.296875q0 1.21875 -0.78125 2.0625q-0.765625 0.84375 -2.796875 0.84375l-2.4375 0l0 3.875l-1.265625 0zm1.265625 -5.0l2.453125 0q1.234375 0 1.75 -0.453125q0.515625 -0.46875 0.515625 -1.28125q0 -0.609375 -0.3125 -1.03125q-0.296875 -0.421875 -0.796875 -0.5625q-0.3125 -0.09375 -1.171875 -0.09375l-2.4375 0l0 3.421875zm7.63974 5.0l0 -9.546875l4.234375 0q1.265625 0 1.921875 0.265625q0.671875 0.25 1.0625 0.90625q0.40625 0.65625 0.40625 1.4375q0 1.015625 -0.65625 1.71875q-0.65625 0.6875 -2.03125 0.875q0.5 0.25 0.765625 0.484375q0.546875 0.5 1.046875 1.265625l1.65625 2.59375l-1.578125 0l-1.265625 -1.984375q-0.5625 -0.859375 -0.921875 -1.3125q-0.34375 -0.453125 -0.640625 -0.640625q-0.28125 -0.1875 -0.5625 -0.25q-0.21875 -0.046875 -0.703125 -0.046875l-1.46875 0l0 4.234375l-1.265625 0zm1.265625 -5.328125l2.71875 0q0.859375 0 1.34375 -0.171875q0.484375 -0.1875 0.734375 -0.578125q0.265625 -0.390625 0.265625 -0.859375q0 -0.671875 -0.5 -1.109375q-0.484375 -0.4375 -1.546875 -0.4375l-3.015625 0l0 3.15625z" fill-rule="nonzero"/><path fill="#000000" fill-opacity="0.0" d="m575.3543 254.1811l119.71655 0l0 34.551163l-119.71655 0z" fill-rule="evenodd"/><path fill="#000000" d="m603.3003 275.9811l0 -9.546875l4.234375 0q1.265625 0 1.921875 0.265625q0.671875 0.25 1.0625 0.90625q0.40625 0.65625 0.40625 1.4375q0 1.015625 -0.65625 1.71875q-0.65625 0.6875 -2.03125 0.875q0.5 0.25 0.765625 0.484375q0.546875 0.5 1.046875 1.265625l1.65625 2.59375l-1.578125 0l-1.265625 -1.984375q-0.5625 -0.859375 -0.921875 -1.3125q-0.34375 -0.453125 -0.640625 -0.640625q-0.28125 -0.1875 -0.5625 -0.25q-0.21875 -0.046875 -0.703125 -0.046875l-1.46875 0l0 4.234375l-1.265625 0zm1.265625 -5.328125l2.71875 0q0.859375 0 1.34375 -0.171875q0.484375 -0.1875 0.734375 -0.578125q0.265625 -0.390625 0.265625 -0.859375q0 -0.671875 -0.5 -1.109375q-0.484375 -0.4375 -1.546875 -0.4375l-3.015625 0l0 3.15625zm12.922058 3.109375l1.203125 0.140625q-0.28125 1.0625 -1.0625 1.65625q-0.765625 0.578125 -1.96875 0.578125q-1.515625 0 -2.40625 -0.9375q-0.890625 -0.9375 -0.890625 -2.609375q0 -1.75 0.890625 -2.703125q0.90625 -0.96875 2.34375 -0.96875q1.390625 0 2.265625 0.9375q0.875 0.9375 0.875 2.65625q0 0.109375 0 0.3125l-5.15625 0q0.0625 1.140625 0.640625 1.75q0.578125 0.59375 1.4375 0.59375q0.65625 0 1.109375 -0.328125q0.453125 -0.34375 0.71875 -1.078125zm-3.84375 -1.90625l3.859375 0q-0.078125 -0.859375 -0.4375 -1.296875q-0.5625 -0.6875 -1.453125 -0.6875q-0.8125 0 -1.359375 0.546875q-0.546875 0.53125 -0.609375 1.4375zm8.443726 4.125l-2.625 -6.90625l1.234375 0l1.484375 4.140625q0.234375 0.65625 0.4375 1.390625q0.15625 -0.546875 0.4375 -1.3125l1.53125 -4.21875l1.21875 0l-2.625 6.90625l-1.09375 0zm4.7578125 -8.1875l0 -1.359375l1.171875 0l0 1.359375l-1.171875 0zm0 8.1875l0 -6.90625l1.171875 0l0 6.90625l-1.171875 0zm7.6798096 -2.21875l1.203125 0.140625q-0.28125 1.0625 -1.0625 1.65625q-0.765625 0.578125 -1.96875 0.578125q-1.515625 0 -2.40625 -0.9375q-0.890625 -0.9375 -0.890625 -2.609375q0 -1.75 0.890625 -2.703125q0.90625 -0.96875 2.34375 -0.96875q1.390625 0 2.265625 0.9375q0.875 0.9375 0.875 2.65625q0 0.109375 0 0.3125l-5.15625 0q0.0625 1.140625 0.640625 1.75q0.578125 0.59375 1.4375 0.59375q0.65625 0 1.109375 -0.328125q0.453125 -0.34375 0.71875 -1.078125zm-3.84375 -1.90625l3.859375 0q-0.078125 -0.859375 -0.4375 -1.296875q-0.5625 -0.6875 -1.453125 -0.6875q-0.8125 0 -1.359375 0.546875q-0.546875 0.53125 -0.609375 1.4375zm7.8031006 4.125l-2.125 -6.90625l1.21875 0l1.09375 3.984375l0.421875 1.484375q0.015625 -0.109375 0.359375 -1.421875l1.09375 -4.046875l1.203125 0l1.03125 4.0l0.34375 1.328125l0.40625 -1.34375l1.171875 -3.984375l1.140625 0l-2.15625 6.90625l-1.21875 0l-1.09375 -4.140625l-0.265625 -1.171875l-1.40625 5.3125l-1.21875 0zm12.203186 0l0 -9.546875l3.59375 0q0.953125 0 1.453125 0.09375q0.703125 0.125 1.171875 0.453125q0.484375 0.328125 0.765625 0.921875q0.296875 0.59375 0.296875 1.296875q0 1.21875 -0.78125 2.0625q-0.765625 0.84375 -2.796875 0.84375l-2.4375 0l0 3.875l-1.265625 0zm1.265625 -5.0l2.453125 0q1.234375 0 1.75 -0.453125q0.515625 -0.46875 0.515625 -1.28125q0 -0.609375 -0.3125 -1.03125q-0.296875 -0.421875 -0.796875 -0.5625q-0.3125 -0.09375 -1.171875 -0.09375l-2.4375 0l0 3.421875zm7.6397095 5.0l0 -9.546875l4.234375 0q1.265625 0 1.921875 0.265625q0.671875 0.25 1.0625 0.90625q0.40625 0.65625 0.40625 1.4375q0 1.015625 -0.65625 1.71875q-0.65625 0.6875 -2.03125 0.875q0.5 0.25 0.765625 0.484375q0.546875 0.5 1.046875 1.265625l1.65625 2.59375l-1.578125 0l-1.265625 -1.984375q-0.5625 -0.859375 -0.921875 -1.3125q-0.34375 -0.453125 -0.640625 -0.640625q-0.28125 -0.1875 -0.5625 -0.25q-0.21875 -0.046875 -0.703125 -0.046875l-1.46875 0l0 4.234375l-1.265625 0zm1.265625 -5.328125l2.71875 0q0.859375 0 1.34375 -0.171875q0.484375 -0.1875 0.734375 -0.578125q0.265625 -0.390625 0.265625 -0.859375q0 -0.671875 -0.5 -1.109375q-0.484375 -0.4375 -1.546875 -0.4375l-3.015625 0l0 3.15625z" fill-rule="nonzero"/><path fill="#000000" fill-opacity="0.0" d="m876.9449 526.916l46.11023 -197.7323" fill-rule="evenodd"/><path stroke="#6aa84f" stroke-width="1.0" stroke-linejoin="round" stroke-linecap="butt" d="m876.9449 526.916l44.74762 -191.88907" fill-rule="evenodd"/><path fill="#6aa84f" stroke="#6aa84f" stroke-width="1.0" stroke-linecap="butt" d="m923.3011 335.40207l-0.5779419 -4.794647l-2.6392212 4.0444336z" fill-rule="evenodd"/><path fill="#000000" fill-opacity="0.0" d="m863.6167 453.3067l33.19684 -174.70865l41.039368 7.8110046l-33.19684 174.70868z" fill-rule="evenodd"/><path fill="#6aa84f" d="m891.84045 435.26633l-11.25116 -2.141449l0.7379761 -3.8836365q0.2479248 -1.304779 0.5326538 -1.9663086q0.41400146 -0.9232788 1.12854 -1.5030212q0.92126465 -0.74716187 2.1694946 -0.95492554q1.2511597 -0.22314453 2.7554321 0.06317139q1.2893066 0.24539185 2.2286987 0.74227905q0.9269409 0.4786377 1.4812012 1.0772095q0.55718994 0.58322144 0.8359375 1.2088623q0.2633667 0.6227112 0.31121826 1.4589233q0.035461426 0.8179321 -0.15704346 1.8310547l-0.7729492 4.0678406zm-1.0524902 -1.7431641l0.45794678 -2.4100037q0.21002197 -1.1052246 0.13006592 -1.7725525q-0.09240723 -0.6856384 -0.3908081 -1.1241455q-0.43511963 -0.63952637 -1.2699585 -1.1006165q-0.83483887 -0.4610901 -2.1088867 -0.70358276q-1.7651978 -0.33596802 -2.8276978 0.066223145q-1.0595703 0.3868103 -1.5394287 1.1543884q-0.34399414 0.5548401 -0.5977173 1.8903198l-0.44921875 2.3639526l8.595703 1.6360168zm1.6113892 -15.511322l0.44006348 -1.3954468q1.194519 0.5772705 1.7102051 1.6297607q0.51867676 1.0371399 0.25030518 2.4493713q-0.34124756 1.79599 -1.6447144 2.6294556q-1.3035278 0.8334961 -3.2836304 0.456604q-2.0568237 -0.39144897 -2.991394 -1.6668091q-0.93463135 -1.2753906 -0.61376953 -2.9639282q0.30914307 -1.6271362 1.6251221 -2.4423218q1.3034668 -0.8334961 3.31427 -0.45077515q0.122802734 0.023376465 0.3684082 0.070129395l-1.1550903 6.0787354q1.3653564 0.18032837 2.215149 -0.3577881q0.8372803 -0.55636597 1.0297852 -1.5694885q0.14587402 -0.7675171 -0.15112305 -1.3807373q-0.29699707 -0.6132202 -1.1135864 -1.0867615zm-3.1015015 4.101837l0.8634033 -4.5437317q-1.0459595 -0.10360718 -1.6341553 0.22976685q-0.923584 0.5081482 -1.1218872 1.5519714q-0.18084717 0.9517212 0.3383789 1.7344971q0.50683594 0.76449585 1.5542603 1.0274963zm9.459839 -6.176117l-11.28186 -2.1472778l0.23919678 -1.258728l1.059082 0.2015686q-0.54473877 -0.5649414 -0.7467041 -1.1759949q-0.19909668 -0.6263733 -0.047424316 -1.4245911q0.19836426 -1.0438232 0.88726807 -1.7398071q0.6889038 -0.69595337 1.7471313 -0.90808105q1.0457153 -0.23040771 2.2122803 -0.008392334q1.258667 0.23956299 2.1688843 0.88998413q0.913147 0.6350403 1.2870483 1.5969238q0.37677002 0.9465027 0.19592285 1.8982239q-0.13122559 0.6907654 -0.52789307 1.1878662q-0.39367676 0.481781 -0.9059448 0.75009155l3.975525 0.75668335l-0.2625122 1.3815308zm-6.931946 -2.607727q1.5809937 0.30093384 2.4526978 -0.18530273q0.8746338 -0.5015564 1.0467529 -1.4072266q0.1749878 -0.9210205 -0.48242188 -1.730072q-0.65740967 -0.8090515 -2.2844238 -1.1187439q-1.5656738 -0.29797363 -2.4556274 0.20065308q-0.9053345 0.49572754 -1.0745239 1.3860474q-0.16625977 0.8749695 0.5313721 1.7234802q0.7005615 0.8331909 2.2661743 1.1311646zm5.4559326 -6.699585l-11.25116 -2.1414185l0.2625122 -1.3815613l11.25116 2.141449l-0.2625122 1.3815308zm-3.5127563 -3.7781067q-2.2563477 -0.42944336 -3.1069946 -1.8955994q-0.7043457 -1.2315369 -0.41851807 -2.7358704q0.32086182 -1.6885376 1.6272583 -2.537384q1.2940063 -0.86709595 3.2433472 -0.49606323q1.5656738 0.29797363 2.3808594 0.946228q0.81518555 0.6482239 1.1496582 1.6502991q0.32202148 0.98379517 0.11785889 2.058319q-0.3237915 1.7038879 -1.6148682 2.5556335q-1.3063965 0.84884644 -3.378601 0.45443726zm0.27130127 -1.4275818q1.5656128 0.29800415 2.4768066 -0.22842407q0.9140625 -0.54177856 1.1094971 -1.5702515q0.19537354 -1.0284729 -0.45910645 -1.8528748q-0.6515503 -0.8397522 -2.2632446 -1.1465149q-1.5042114 -0.28631592 -2.418335 0.25546265q-0.9111328 0.5264282 -1.1065674 1.5549011q-0.19543457 1.0284729 0.45617676 1.8682251q0.6390991 0.8215027 2.204773 1.1194763zm8.706909 -6.398926l-1.3338623 -0.09484863q0.20739746 -0.42178345 0.2715454 -0.75949097q0.087524414 -0.46051025 -0.0134887695 -0.7660217q-0.10101318 -0.30551147 -0.34228516 -0.54229736q-0.1762085 -0.16079712 -0.949646 -0.610199q-0.09869385 -0.06652832 -0.3143921 -0.18707275l-8.752136 1.531189l0.28289795 -1.4889832l5.033142 -0.7916565q0.9697876 -0.16534424 2.001709 -0.23931885q-0.90789795 -0.41137695 -1.7493286 -0.92144775l-4.413391 -2.637329l0.2625122 -1.3815308l7.699524 4.6783447q1.2573853 0.74832153 1.7114258 1.1210327q0.6053467 0.49694824 0.8372803 1.0341492q0.2319336 0.53723145 0.10650635 1.1972961q-0.075805664 0.3991089 -0.3380127 0.8581848zm-1.4833984 -16.132172l1.2658691 0.03414917q0.011962891 0.60668945 -0.07556152 1.0671997q-0.1428833 0.75216675 -0.4519043 1.1228027q-0.32434082 0.36773682 -0.74017334 0.4635315q-0.43115234 0.09289551 -1.6744385 -0.1437378l-4.6815796 -0.89105225l-0.19250488 1.0131226l-1.0744629 -0.20449829l0.19250488 -1.0131226l-2.026123 -0.38562012l-0.56640625 -1.5393066l2.8550415 0.543396l0.2625122 -1.3815308l1.0744629 0.20449829l-0.2625122 1.3815308l4.758301 0.90567017q0.5986328 0.11392212 0.7791748 0.08465576q0.18341064 -0.0446167 0.322937 -0.19299316q0.12420654 -0.15133667 0.18249512 -0.4583435q0.043762207 -0.23025513 0.052368164 -0.61035156zm-2.680664 -1.3770752q-2.2564087 -0.42944336 -3.1069946 -1.8955994q-0.70440674 -1.2315369 -0.41851807 -2.7358704q0.32080078 -1.6885376 1.6272583 -2.5373535q1.2939453 -0.86712646 3.2433472 -0.49609375q1.5656128 0.29800415 2.3808594 0.946228q0.81518555 0.6482239 1.1495972 1.6502991q0.32202148 0.98379517 0.11785889 2.058319q-0.3237915 1.7038879 -1.6148071 2.555664q-1.3064575 0.8488159 -3.378601 0.45440674zm0.27124023 -1.4275818q1.5656738 0.29800415 2.4768066 -0.22842407q0.9140625 -0.54177856 1.1094971 -1.5702515q0.19543457 -1.0284729 -0.4590454 -1.8528748q-0.6516113 -0.8397522 -2.2633057 -1.1465149q-1.5042114 -0.2862854 -2.418274 0.25546265q-0.91119385 0.5264282 -1.1066284 1.5549011q-0.19537354 1.0284729 0.45617676 1.8682251q0.63916016 0.8215027 2.204773 1.1194763zm9.533081 -10.830414l-11.28186 -2.1472778l0.23919678 -1.258728l1.059082 0.2015686q-0.54473877 -0.5649414 -0.7467041 -1.1759949q-0.19909668 -0.6263733 -0.047424316 -1.4245911q0.19836426 -1.0438232 0.88726807 -1.7398071q0.6889038 -0.69595337 1.7470703 -0.90808105q1.0457764 -0.23040771 2.2123413 -0.008392334q1.258667 0.23956299 2.1688843 0.88998413q0.91308594 0.6350403 1.2869873 1.5969238q0.37683105 0.9465027 0.19598389 1.8982239q-0.13122559 0.6907654 -0.52789307 1.1878662q-0.3937378 0.4817505 -0.9059448 0.75009155l3.975525 0.75668335l-0.2625122 1.3815308zm-6.931946 -2.607727q1.5809937 0.30093384 2.4526978 -0.18530273q0.8746338 -0.5015564 1.0466919 -1.4072266q0.17504883 -0.9210205 -0.48236084 -1.730072q-0.65740967 -0.8090515 -2.2844238 -1.1187439q-1.5656738 -0.29797363 -2.4556274 0.20065308q-0.9053345 0.49572754 -1.0745239 1.3860474q-0.16625977 0.8749695 0.5313721 1.7234802q0.7005005 0.8331909 2.2661743 1.1311646zm5.4588013 -6.7149353l-8.150513 -1.5513l0.23620605 -1.2433777l1.2279663 0.23370361q-0.769104 -0.6394348 -0.9696045 -1.091156q-0.20043945 -0.45169067 -0.1071167 -0.9429016q0.13128662 -0.6907654 0.713501 -1.3275146l1.1835938 0.7183533q-0.38793945 0.4510498 -0.4841919 0.9576111q-0.08453369 0.4451599 0.1217041 0.8661499q0.19390869 0.40274048 0.6558838 0.64971924q0.6930542 0.3704834 1.5679321 0.5370178l4.267151 0.8121643l-0.2625122 1.3815308zm-3.1845703 -5.505005q-2.2563477 -0.42947388 -3.1069946 -1.8956299q-0.7043457 -1.2315369 -0.41851807 -2.7358704q0.32080078 -1.6885376 1.6272583 -2.5373535q1.2939453 -0.86709595 3.2433472 -0.49609375q1.5656738 0.29800415 2.3808594 0.946228q0.81518555 0.6482239 1.1496582 1.6502991q0.32196045 0.9838257 0.11779785 2.0583496q-0.32373047 1.7038879 -1.6148071 2.5556335q-1.3063965 0.8488159 -3.378601 0.45443726zm0.27124023 -1.4275818q1.5656738 0.29797363 2.4768066 -0.22845459q0.9140625 -0.54174805 1.1094971 -1.570221q0.19543457 -1.0284729 -0.4590454 -1.8529053q-0.6515503 -0.8397522 -2.2632446 -1.1465149q-1.5042725 -0.2862854 -2.418335 0.25546265q-0.9111328 0.5264282 -1.1065674 1.5549011q-0.19543457 1.0284729 0.45611572 1.8682556q0.63916016 0.82147217 2.204773 1.1194763zm6.5753174 -12.339783l-1.0283813 -0.19573975q1.0667725 0.99832153 0.7809448 2.502655q-0.18670654 0.9824219 -0.87854004 1.6937256q-0.69177246 0.7113342 -1.7463379 0.98779297q-1.0515747 0.2611084 -2.2948608 0.024475098q-1.2279663 -0.23373413 -2.1345215 -0.8197937q-0.9189453 -0.6043701 -1.2862549 -1.517273q-0.3826294 -0.915802 -0.19012451 -1.9289246q0.14001465 -0.7368164 0.55493164 -1.2463684q0.41778564 -0.5248718 0.9914551 -0.78152466l-4.0369263 -0.76834106l0.2625122 -1.3815308l11.25116 2.1414185l-0.24505615 1.2894287zm-4.895935 3.5853271q1.5656128 0.29797363 2.473877 -0.21310425q0.8928833 -0.51397705 1.0620728 -1.4042969q0.1720581 -0.90567017 -0.4451294 -1.6752625q-0.62957764 -0.7878723 -2.14917 -1.0770874q-1.6730957 -0.31845093 -2.5784302 0.17727661q-0.9053345 0.49572754 -1.0861816 1.4474487q-0.1749878 0.9210205 0.46044922 1.6781616q0.635437 0.75717163 2.2625122 1.066864zm4.817505 -17.485748l0.4401245 -1.3954468q1.194519 0.5772705 1.7102051 1.6297607q0.5186157 1.0371399 0.25030518 2.4493713q-0.34124756 1.79599 -1.6447754 2.629486q-1.3034668 0.8334656 -3.2835693 0.456604q-2.0568237 -0.3914795 -2.991455 -1.6668396q-0.9345703 -1.2753601 -0.6137085 -2.9638977q0.30914307 -1.6271362 1.625061 -2.4423523q1.3035278 -0.8334656 3.314331 -0.45077515q0.1227417 0.023376465 0.36834717 0.070129395l-1.1550293 6.0787354q1.3653564 0.18032837 2.215088 -0.3577881q0.8373413 -0.55636597 1.0298462 -1.5694885q0.14581299 -0.7675171 -0.15118408 -1.3807373q-0.29699707 -0.6132202 -1.1135864 -1.0867615zm-3.1014404 4.101837l0.8633423 -4.543701q-1.0458984 -0.103637695 -1.6340942 0.22976685q-0.923584 0.5081482 -1.1219482 1.5519714q-0.18084717 0.9517212 0.33843994 1.7344666q0.50683594 0.76449585 1.5542603 1.0274963zm6.3285522 -6.7720947l-8.150574 -1.5513l0.23626709 -1.2433777l1.1511841 0.21911621q-1.1661987 -1.1445007 -0.84246826 -2.8483887q0.14001465 -0.7368164 0.51763916 -1.3011475q0.3776245 -0.5643616 0.86572266 -0.7895813q0.48809814 -0.22518921 1.1101074 -0.23406982q0.39831543 -0.003692627 1.3499756 0.1774292l5.019226 0.95532227l-0.26245117 1.3815308l-4.9578857 -0.94363403q-0.8442383 -0.16067505 -1.2907715 -0.07070923q-0.45892334 0.07168579 -0.78326416 0.4394226q-0.32147217 0.35235596 -0.42645264 0.90496826q-0.16918945 0.8903198 0.27624512 1.6431274q0.4329834 0.7345276 1.9986572 1.0325317l4.451355 0.847229l-0.2625122 1.3815308zm2.0898438 -10.998535l-8.739746 1.549469l0.2770996 -1.4582825l5.213623 -0.82089233q0.83825684 -0.14266968 1.7415771 -0.20932007q-0.6096802 -0.30691528 -1.4511108 -0.8169861l-4.6290894 -2.757904l0.26837158 -1.4122314l7.56427 4.6367188l-0.24499512 1.2894287z" fill-rule="nonzero"/><path fill="#000000" fill-opacity="0.0" d="m828.9449 462.91602l46.11023 -197.7323" fill-rule="evenodd"/><path stroke="#6aa84f" stroke-width="1.0" stroke-linejoin="round" stroke-linecap="butt" d="m828.9449 462.91602l44.74762 -191.88907" fill-rule="evenodd"/><path fill="#6aa84f" stroke="#6aa84f" stroke-width="1.0" stroke-linecap="butt" d="m875.3011 271.40207l-0.5779419 -4.794647l-2.6392212 4.0444336z" fill-rule="evenodd"/><path fill="#000000" fill-opacity="0.0" d="m800.5461 431.596l35.874023 -174.14172l40.91339 8.409424l-35.874023 174.14175z" fill-rule="evenodd"/><path fill="#6aa84f" d="m829.6723 410.94263l-11.218628 -2.3058777l0.7976074 -3.8718262q0.26800537 -1.3008118 0.56292725 -1.9580383q0.42816162 -0.91693115 1.1516113 -1.4860535q0.9328003 -0.7334595 2.1842651 -0.9228821q1.2546387 -0.20471191 2.7545166 0.10357666q1.2856445 0.2642517 2.2174072 0.7748108q0.9196167 0.49209595 1.4647217 1.0986328q0.5482178 0.59121704 0.8173218 1.2207947q0.2538452 0.6264343 0.2888794 1.4631348q0.022888184 0.8182373 -0.18518066 1.8282776l-0.8354492 4.0554504zm-1.0257568 -1.7581177l0.49499512 -2.4026794q0.22698975 -1.1018677 0.15722656 -1.7702026q-0.081848145 -0.6867981 -0.37347412 -1.1296082q-0.425354 -0.64572144 -1.2531738 -1.1189575q-0.8277588 -0.47320557 -2.0980835 -0.73431396q-1.7600708 -0.3617859 -2.8287964 0.024719238q-1.0655518 0.3711853 -1.55719 1.1315308q-0.35253906 0.5496521 -0.62683105 1.881073l-0.48547363 2.3567505l8.570801 1.7616882zm1.8496704 -15.483734l0.46154785 -1.3886414q1.185669 0.594635 1.6852417 1.654419q0.50268555 1.0444946 0.21264648 2.452423q-0.36883545 1.7905273 -1.6851807 2.6046753q-1.3163452 0.81414795 -3.2907104 0.4083252q-2.0508423 -0.4215393 -2.9658813 -1.7102966q-0.91503906 -1.2887268 -0.56829834 -2.9721375q0.33422852 -1.6221924 1.6627197 -2.4178772q1.3163452 -0.81414795 3.321289 -0.40203857q0.12243652 0.025146484 0.36730957 0.07550049l-1.2484131 6.0602417q1.3626099 0.20031738 2.220642 -0.3251953q0.84588623 -0.5439453 1.0539551 -1.5539856q0.15765381 -0.76519775 -0.12994385 -1.3825989q-0.28759766 -0.61743164 -1.0969238 -1.1028137zm-3.1645508 4.0552673l0.9331665 -4.5298767q-1.0443726 -0.118927 -1.6376953 0.20574951q-0.9314575 0.49447632 -1.145813 1.5351257q-0.19543457 0.948822 0.31176758 1.7390137q0.4951172 0.7717285 1.5385742 1.0499878zm9.554932 -6.035797l-11.249207 -2.3121948l0.25854492 -1.2548828l1.0560303 0.21707153q-0.5360718 -0.5727844 -0.72869873 -1.1866455q-0.18945312 -0.6291504 -0.025512695 -1.4249268q0.2144165 -1.0406494 0.91400146 -1.7263489q0.699646 -0.68566895 1.7611084 -0.88223267q1.0493164 -0.21502686 2.2125244 0.024047852q1.2550049 0.2579651 2.1552734 0.9215698q0.90338135 0.6482849 1.2625122 1.615387q0.3623047 0.95181274 0.16680908 1.9006348q-0.1418457 0.68865967 -0.5461426 1.1798096q-0.40112305 0.4758606 -0.91748047 0.7366333l3.9639893 0.8147583l-0.28375244 1.3773193zm-6.89209 -2.7086792q1.576416 0.32400513 2.4556274 -0.14929199q0.88238525 -0.48861694 1.0683594 -1.39151q0.18914795 -0.9182434 -0.45581055 -1.7367249q-0.64501953 -0.81851196 -2.267334 -1.151947q-1.5610962 -0.32089233 -2.4588013 0.1645813q-0.91296387 0.4822998 -1.0958252 1.3699341q-0.1796875 0.87228394 0.50494385 1.730835q0.68774414 0.8432312 2.2488403 1.1641235zm5.559021 -6.6178894l-11.218628 -2.3058777l0.28375244 -1.3773499l11.218567 2.3059082l-0.2836914 1.3773193zm-3.454834 -3.8286438q-2.249817 -0.46243286 -3.078003 -1.9407043q-0.6854248 -1.2415466 -0.37646484 -2.7413025q0.34674072 -1.6834106 1.6662598 -2.512848q1.307373 -0.8479004 3.2510986 -0.44839478q1.5610962 0.32089233 2.366394 0.980896q0.8052368 0.6600342 1.1243286 1.666748q0.30688477 0.98828125 0.08618164 2.0595398q-0.34991455 1.6987 -1.6541138 2.531311q-1.319519 0.82943726 -3.3856812 0.40475464zm0.2932129 -1.4232483q1.5610962 0.32089233 2.4803467 -0.19204712q0.9224243 -0.52822876 1.133667 -1.5535583q0.21124268 -1.0253601 -0.43060303 -1.8591614q-0.6386719 -0.8490906 -2.2457275 -1.1794128q-1.4998779 -0.30828857 -2.4223022 0.21994019q-0.9193115 0.51293945 -1.1304932 1.538269q-0.21124268 1.0253601 0.4274292 1.8744507q0.6265259 0.83065796 2.187683 1.1515198zm8.805481 -6.2695923l-1.3324585 -0.11437988q0.21386719 -0.41864014 0.28320312 -0.75531006q0.09460449 -0.45910645 -0.0017089844 -0.7660217q-0.09631348 -0.3069458 -0.33398438 -0.5472107q-0.17370605 -0.16333008 -0.9403076 -0.6239624q-0.09765625 -0.06793213 -0.3114624 -0.19165039l-8.776001 1.4024658l0.30584717 -1.4844666l5.04541 -0.71762085q0.9723511 -0.15106201 2.0054932 -0.2098999q-0.9016113 -0.42459106 -1.7352905 -0.9468994l-4.372986 -2.701355l0.2836914 -1.3773499l7.6279297 4.7901q1.2459717 0.7665405 1.6942749 1.1458435q0.5977783 0.5057068 0.82141113 1.0461731q0.22369385 0.5404663 0.088134766 1.1985168q-0.081970215 0.3979187 -0.3511963 0.85302734zm-1.2356567 -16.14981l1.2653809 0.052734375q0.0026245117 0.60668945 -0.091918945 1.0657959q-0.15447998 0.7498779 -0.46917725 1.1159058q-0.3300171 0.362854 -0.74731445 0.45254517q-0.4326172 0.08654785 -1.6723633 -0.16824341l-4.66803 -0.9595032l-0.20806885 1.0100403l-1.0713501 -0.22018433l0.20806885 -1.0100403l-2.0202637 -0.4152527l-0.5427246 -1.5472107l2.8467407 0.5851135l0.28375244 -1.3773193l1.0713501 0.22021484l-0.28375244 1.3773193l4.744568 0.9752197q0.5969238 0.122680664 0.77789307 0.096069336q0.18408203 -0.041900635 0.32592773 -0.18823242q0.12646484 -0.1494751 0.18951416 -0.4555359q0.047302246 -0.22955322 0.061767578 -0.60943604zm-2.659607 -1.4160156q-2.249878 -0.46243286 -3.078003 -1.9407043q-0.68548584 -1.2415466 -0.37652588 -2.7413025q0.34680176 -1.6834106 1.6663208 -2.512848q1.307312 -0.8479004 3.2510376 -0.44839478q1.5611572 0.32089233 2.366394 0.980896q0.80529785 0.6600342 1.1243286 1.666748q0.3069458 0.98828125 0.086242676 2.0595398q-0.3499756 1.6987 -1.6541138 2.531311q-1.319519 0.82943726 -3.3856812 0.40475464zm0.29315186 -1.4232483q1.5611572 0.32089233 2.4804077 -0.19204712q0.9224243 -0.52822876 1.133667 -1.5535583q0.21118164 -1.0253601 -0.43060303 -1.8591614q-0.6387329 -0.8490906 -2.2457275 -1.1794128q-1.499939 -0.30828857 -2.4223633 0.21994019q-0.9192505 0.51293945 -1.1304932 1.538269q-0.21118164 1.0253296 0.42749023 1.8744507q0.6265259 0.83065796 2.187622 1.1515198zm7.6619873 -16.594055l-1.0254517 -0.21078491q1.0515137 1.0137024 0.7425537 2.5134888q-0.20178223 0.97943115 -0.904541 1.6804199q-0.7027588 0.70098877 -1.7615967 0.96188354q-1.055603 0.24563599 -2.2953491 -0.009185791q-1.2243652 -0.25164795 -2.1219482 -0.8508911q-0.90966797 -0.6176758 -1.2630005 -1.5357361q-0.3685913 -0.9212036 -0.16046143 -1.9312439q0.15130615 -0.7345581 0.57403564 -1.2378845q0.42590332 -0.5186157 1.003479 -0.76678467l-4.0252075 -0.82736206l0.28375244 -1.3773193l11.218567 2.3059082l-0.26483154 1.285492zm-4.951172 3.5125732q1.5610962 0.32089233 2.477234 -0.1767273q0.9008179 -0.50076294 1.0836792 -1.3883667q0.18597412 -0.9029236 -0.41937256 -1.681366q-0.6175537 -0.7969055 -2.1327515 -1.1083374q-1.6682739 -0.3428955 -2.5812378 0.1394043q-0.91296387 0.48233032 -1.1083984 1.4311523q-0.18914795 0.9182129 0.43469238 1.6845093q0.62384033 0.7662964 2.2461548 1.0997314zm4.189331 -13.056702l0.46154785 -1.3886414q1.185669 0.594635 1.6852417 1.654419q0.5027466 1.0444946 0.21264648 2.452423q-0.36883545 1.7905273 -1.6851807 2.6046753q-1.3163452 0.81414795 -3.2907104 0.4083252q-2.0508423 -0.4215393 -2.9658813 -1.7102966q-0.91503906 -1.2887268 -0.5682373 -2.9721375q0.33416748 -1.6221924 1.6626587 -2.4178772q1.3163452 -0.81414795 3.321289 -0.40203857q0.12243652 0.025146484 0.36730957 0.07550049l-1.2484131 6.0602417q1.3626099 0.20031738 2.220642 -0.3251953q0.84588623 -0.5439453 1.0539551 -1.5539856q0.15765381 -0.76519775 -0.12994385 -1.3825989q-0.28759766 -0.61743164 -1.0969238 -1.1028137zm-3.1645508 4.0552673l0.9331665 -4.5298767q-1.0443726 -0.11895752 -1.6376953 0.20574951q-0.9313965 0.49447632 -1.145813 1.5351257q-0.19543457 0.948822 0.3118286 1.7390137q0.49505615 0.7717285 1.5385132 1.0499878zm6.896179 -8.927185l-8.763794 1.4208984l0.2994995 -1.4538269l5.2263794 -0.7442627q0.8404541 -0.13031006 1.744812 -0.18371582q-0.60498047 -0.31576538 -1.4385986 -0.8380432l-4.586853 -2.8250732l0.2901001 -1.407959l7.493286 4.7464905l-0.26483154 1.285492zm0.57489014 -16.032867l0.46154785 -1.3886414q1.1856079 0.594635 1.6851807 1.654419q0.5027466 1.0444641 0.21270752 2.452423q-0.36883545 1.7905273 -1.6851807 2.6046753q-1.3163452 0.81414795 -3.2907104 0.4083252q-2.0509033 -0.4215393 -2.9659424 -1.7102966q-0.91503906 -1.2887268 -0.5682373 -2.9721375q0.33416748 -1.6221924 1.6626587 -2.4178772q1.3163452 -0.81414795 3.32135 -0.40203857q0.12243652 0.025146484 0.36730957 0.07550049l-1.2484741 6.0602417q1.3626099 0.20031738 2.2207031 -0.3251953q0.84588623 -0.5439453 1.0539551 -1.5539856q0.15759277 -0.76519775 -0.12994385 -1.3826294q-0.28759766 -0.6174011 -1.0969238 -1.1027832zm-3.1646118 4.0552673l0.93322754 -4.5298767q-1.0443726 -0.11895752 -1.6376953 0.20574951q-0.9314575 0.49447632 -1.145813 1.5351257q-0.1954956 0.948822 0.31176758 1.7389832q0.4951172 0.77175903 1.5385132 1.0500183zm6.4327393 -6.6775513l-8.126953 -1.6704407l0.2553711 -1.2395935l1.1478882 0.2359314q-1.1486816 -1.1612854 -0.7987671 -2.8599854q0.15130615 -0.7345886 0.53759766 -1.2932434q0.3862915 -0.5586548 0.8779297 -0.77667236q0.49157715 -0.21798706 1.1137085 -0.2177124q0.39837646 0.0021362305 1.34729 0.19717407l5.0047607 1.0286865l-0.28375244 1.3773193l-4.9435425 -1.0161133q-0.84173584 -0.17300415 -1.2896729 -0.08959961q-0.460083 0.064941406 -0.7901001 0.4277954q-0.32684326 0.3475647 -0.44030762 0.89849854q-0.18286133 0.88760376 0.2510376 1.646759q0.4216919 0.74072266 1.9827881 1.0615845l4.4384766 0.9122925l-0.28375244 1.3773193zm2.2589111 -10.965057l-8.763855 1.4208984l0.2994995 -1.4538574l5.2264404 -0.7442322q0.8404541 -0.13031006 1.744812 -0.18371582q-0.60498047 -0.31576538 -1.4385986 -0.8380432l-4.586853 -2.8251038l0.29003906 -1.4079285l7.493286 4.7464905l-0.2647705 1.285492z" fill-rule="nonzero"/><path fill="#000000" fill-opacity="0.0" d="m562.22144 11.387466l177.79529 0.062992096l0 54.236217l-177.79529 -0.06298828z" fill-rule="evenodd"/><path fill="#6aa84f" d="m576.3066 35.75246l0 -11.453127l3.953125 0.0013999939q1.328125 4.711151E-4 2.03125 0.15696907q0.984375 0.23472404 1.6875 0.8287239q0.90625 0.76594543 1.34375 1.9536018q0.453125 1.1876602 0.453125 2.7189102q0 1.3125 -0.3125 2.3280144q-0.296875 0.9998932 -0.78125 1.6559715q-0.46875 0.65608597 -1.03125 1.0465126q-0.5625 0.37479782 -1.375 0.5776367q-0.796875 0.18721771 -1.828125 0.1868515l-4.140625 -0.0014648438zm1.515625 -1.358841l2.453125 8.69751E-4q1.125 4.005432E-4 1.765625 -0.20249939q0.65625 -0.2185173 1.03125 -0.5933838q0.546875 -0.54668045 0.84375 -1.4528275q0.296875 -0.9061432 0.296875 -2.2030182q0 -1.796875 -0.59375 -2.7658367q-0.578125 -0.9689541 -1.421875 -1.2973785q-0.609375 -0.23459053 -1.96875 -0.23507309l-2.40625 -8.5258484E-4l0 8.75zm15.5390625 -1.3069916l1.453125 0.17238617q-0.34375 1.2811317 -1.28125 1.9839249q-0.921875 0.70279694 -2.359375 0.70228577q-1.828125 -6.4468384E-4 -2.890625 -1.1260223q-1.0625 -1.1253777 -1.0625 -3.1410027q0 -2.09375 1.078125 -3.2496185q1.078125 -1.1558666 2.796875 -1.1552582q1.65625 5.874634E-4 2.703125 1.1415825q1.0625 1.1253777 1.0625 3.1722527q0 0.125 0 0.375l-6.1875 -0.002193451q0.078125 1.3750267 0.765625 2.1096458q0.703125 0.71900177 1.734375 0.71936417q0.78125 2.784729E-4 1.328125 -0.40577698q0.546875 -0.40605927 0.859375 -1.2965698zm-4.609375 -2.2828846l4.625 0.0016384125q-0.09375 -1.0469093 -0.53125 -1.5626888q-0.671875 -0.8127384 -1.734375 -0.81311417q-0.96875 -3.4332275E-4 -1.640625 0.65566826q-0.65625 0.6403923 -0.71875 1.7184963zm7.8359375 8.1434l0 -11.484375l1.28125 4.5394897E-4l0 1.078125q0.453125 -0.6404648 1.015625 -0.9527645q0.578125 -0.3122959 1.390625 -0.3120079q1.0625 3.7574768E-4 1.875 0.54753876q0.8125 0.547163 1.21875 1.547308q0.421875 0.9845238 0.421875 2.1720238q0 1.28125 -0.46875 2.296711q-0.453125 1.0154648 -1.328125 1.562027q-0.859375 0.54657364 -1.828125 0.5462303q-0.703125 -2.5177002E-4 -1.265625 -0.29732513q-0.546875 -0.29706955 -0.90625 -0.75032043l0 4.046875l-1.40625 -4.9972534E-4zm1.265625 -7.296427q0 1.6093769 0.640625 2.375227q0.65625 0.7658577 1.578125 0.76618576q0.9375 3.3187866E-4 1.609375 -0.7963066q0.671875 -0.7966347 0.671875 -2.4528866q0 -1.59375 -0.65625 -2.3752327q-0.65625 -0.7971077 -1.5625 -0.79742813q-0.890625 -3.1471252E-4 -1.59375 0.8431854q-0.6875 0.84350586 -0.6875 2.4372559zm7.6015625 4.11207l0 -11.453127l1.40625 4.97818E-4l0 11.453125l-1.40625 -4.9591064E-4zm3.0546875 -4.1551685q0 -2.296875 1.28125 -3.405796q1.078125 -0.92149353 2.609375 -0.92095184q1.71875 6.1035156E-4 2.796875 1.1259918q1.09375 1.1097622 1.09375 3.0941372q0 1.59375 -0.484375 2.5154533q-0.484375 0.92170334 -1.40625 1.4370041q-0.90625 0.49967575 -2.0 0.49929047q-1.734375 -6.1416626E-4 -2.8125 -1.1103706q-1.078125 -1.1253853 -1.078125 -3.2347584zm1.453125 5.1498413E-4q0 1.5937481 0.6875 2.3908672q0.703125 0.79712677 1.75 0.7974968q1.046875 3.7002563E-4 1.734375 -0.79626083q0.703125 -0.79662704 0.703125 -2.437252q0 -1.53125 -0.703125 -2.328373q-0.6875 -0.79711914 -1.734375 -0.7974911q-1.046875 -3.7002563E-4 -1.75 0.7962551q-0.6875 0.78100777 -0.6875 2.3747578zm7.9140625 7.3621807l-0.15625 -1.3281822q0.453125 0.12516022 0.796875 0.12528229q0.46875 1.6784668E-4 0.75 -0.15598297q0.28125 -0.15615082 0.46875 -0.43733597q0.125 -0.20307922 0.421875 -1.0467262q0.046875 -0.10935593 0.125 -0.34370422l-3.140625 -8.313614l1.515625 5.378723E-4l1.71875 4.7974854q0.34375 0.9219971 0.609375 1.9220886q0.234375 -0.9686661 0.578125 -1.890419l1.765625 -4.8274994l1.40625 4.97818E-4l-3.15625 8.43638q-0.5 1.3748245 -0.78125 1.8903503q-0.375 0.6873665 -0.859375 1.0153198q-0.484375 0.32795334 -1.15625 0.32771683q-0.40625 -1.449585E-4 -0.90625 -0.17219543zm15.5703125 -4.463234l0.203125 1.2500687q-0.59375 0.12479019 -1.0625 0.12462616q-0.765625 -2.708435E-4 -1.1875 -0.23479843q-0.421875 -0.25014877 -0.59375 -0.6408348q-0.171875 -0.40631104 -0.171875 -1.671936l0 -4.765623l-1.03125 -3.6621094E-4l0 -1.09375l1.03125 3.643036E-4l0 -2.0625l1.40625 -0.8432503l0 2.90625l1.40625 4.97818E-4l0 1.09375l-1.40625 -4.97818E-4l0 4.84375q0 0.609375 0.0625 0.7812729q0.078125 0.1719017 0.25 0.28133774q0.171875 0.093811035 0.484375 0.09392166q0.234375 8.392334E-5 0.609375 -0.062282562zm0.8515625 -2.8903255q0 -2.296875 1.28125 -3.405796q1.078125 -0.92149353 2.609375 -0.92094994q1.71875 6.084442E-4 2.796875 1.1259899q1.09375 1.1097641 1.09375 3.094139q0 1.5937481 -0.484375 2.5154514q-0.484375 0.92170334 -1.40625 1.4370041q-0.90625 0.49967957 -2.0 0.49929047q-1.734375 -6.1416626E-4 -2.8125 -1.1103706q-1.078125 -1.1253815 -1.078125 -3.2347584zm1.453125 5.1498413E-4q0 1.5937519 0.6875 2.3908672q0.703125 0.79712677 1.75 0.7974968q1.046875 3.7002563E-4 1.734375 -0.79626083q0.703125 -0.79662704 0.703125 -2.4372501q0 -1.53125 -0.703125 -2.3283749q-0.6875 -0.79711914 -1.734375 -0.79748917q-1.046875 -3.7193298E-4 -1.75 0.7962551q-0.6875 0.78100586 -0.6875 2.3747559zm12.75 4.1607685l0 -7.203127l-1.234375 -4.3678284E-4l0 -1.09375l1.234375 4.3678284E-4l0 -0.890625q0 -0.828125 0.15625 -1.2343197q0.203125 -0.5468025 0.703125 -0.89037514q0.515625 -0.3435669 1.4375 -0.34324074q0.59375 2.0980835E-4 1.3125 0.1410904l-0.203125 1.2343025q-0.4375 -0.078279495 -0.828125 -0.07841873q-0.640625 -2.2697449E-4 -0.90625 0.28092957q-0.265625 0.26553154 -0.265625 1.0155315l0 0.765625l1.609375 5.7029724E-4l0 1.09375l-1.609375 -5.7029724E-4l0 7.203123l-1.40625 -4.9591064E-4zm9.7890625 -2.6684074l1.453125 0.17238998q-0.34375 1.2811279 -1.28125 1.983921q-0.921875 0.70279694 -2.359375 0.7022896q-1.828125 -6.4849854E-4 -2.890625 -1.1260262q-1.0625 -1.1253738 -1.0625 -3.1410007q0 -2.09375 1.078125 -3.2496185q1.078125 -1.1558666 2.796875 -1.1552582q1.65625 5.874634E-4 2.703125 1.1415825q1.0625 1.1253757 1.0625 3.1722507q0 0.125 0 0.375l-6.1875 -0.0021915436q0.078125 1.3750286 0.765625 2.1096478q0.703125 0.71899796 1.734375 0.71936417q0.78125 2.746582E-4 1.328125 -0.4057808q0.546875 -0.40605545 0.859375 -1.2965698zm-4.609375 -2.2828827l4.625 0.0016384125q-0.09375 -1.0469093 -0.53125 -1.5626888q-0.671875 -0.8127384 -1.734375 -0.81311417q-0.96875 -3.4332275E-4 -1.640625 0.65566826q-0.65625 0.6403923 -0.71875 1.7184963zm13.2421875 3.926567q-0.78125 0.6715965 -1.5 0.95259094q-0.71875 0.26537323 -1.546875 0.2650795q-1.375 -4.8828125E-4 -2.109375 -0.6726227q-0.734375 -0.6721344 -0.734375 -1.7033844q0 -0.609375 0.28125 -1.1092758q0.28125 -0.5155258 0.71875 -0.8122463q0.453125 -0.31233978 1.015625 -0.4683895q0.421875 -0.10922623 1.25 -0.2026825q1.703125 -0.20252228 2.515625 -0.48348427q0 -0.296875 0 -0.375q0 -0.859375 -0.390625 -1.2032642q-0.546875 -0.48456764 -1.609375 -0.4849434q-0.984375 -3.490448E-4 -1.46875 0.3588543q-0.46875 0.34358406 -0.6875 1.2185059l-1.375 -0.18798637q0.1875 -0.87493515 0.609375 -1.4216595q0.4375 -0.5467205 1.25 -0.8276825q0.8125 -0.296587 1.875 -0.29621124q1.0625 3.7765503E-4 1.71875 0.25060844q0.671875 0.25023842 0.984375 0.62534904q0.3125 0.37511063 0.4375 0.9532814q0.078125 0.3594017 0.078125 1.2969017l0 1.8750019q0 1.96875 0.078125 2.4844017q0.09375 0.51565933 0.359375 1.0001259l-1.46875 -5.187988E-4q-0.21875 -0.4375763 -0.28125 -1.0313492zm-0.109375 -3.140665q-0.765625 0.31222916 -2.296875 0.53043556q-0.875 0.12469101 -1.234375 0.28081512q-0.359375 0.1561203 -0.5625 0.46854782q-0.1875 0.29681015 -0.1875 0.65618515q0 0.5625 0.421875 0.9376488q0.4375 0.3751564 1.25 0.3754425q0.8125 2.89917E-4 1.4375 -0.34323883q0.640625 -0.35914993 0.9375 -0.9840431q0.234375 -0.46866608 0.234375 -1.4061661l0 -0.5156269zm6.6640625 2.9086132l0.203125 1.2500687q-0.59375 0.12479019 -1.0625 0.12462616q-0.765625 -2.708435E-4 -1.1875 -0.23479843q-0.421875 -0.25014877 -0.59375 -0.6408348q-0.171875 -0.40631104 -0.171875 -1.671936l0 -4.765625l-1.03125 -3.643036E-4l0 -1.09375l1.03125 3.643036E-4l0 -2.0625l1.40625 -0.8432503l0 2.90625l1.40625 4.97818E-4l0 1.09375l-1.40625 -4.97818E-4l0 4.84375q0 0.609375 0.0625 0.7812729q0.078125 0.1719017 0.25 0.28133774q0.171875 0.093811035 0.484375 0.09392166q0.234375 8.392334E-5 0.609375 -0.062282562zm6.8203125 1.2680397l0 -1.21875q-0.96875 1.4059067 -2.640625 1.4053154q-0.734375 -2.593994E-4 -1.375 -0.28173828q-0.625 -0.28147125 -0.9375 -0.7034569q-0.3125 -0.43761063 -0.4375 -1.0470314q-0.078125 -0.4219017 -0.078125 -1.3125267l0 -5.140625l1.40625 4.97818E-4l0 4.593752q0 1.109375 0.078125 1.4844017q0.140625 0.5625496 0.5625 0.87519836q0.4375 0.3126564 1.0625 0.31287766q0.640625 2.2506714E-4 1.1875 -0.31208038q0.5625 -0.32792664 0.78125 -0.8903465q0.234375 -0.5624199 0.234375 -1.624918l0 -4.4375l1.40625 4.97818E-4l0 8.296875l-1.25 -4.4250488E-4zm3.4453125 0.0012207031l0 -8.296875l1.265625 4.4822693E-4l0 1.25q0.484375 -0.87482834 0.890625 -1.1559353q0.40625 -0.28110504 0.90625 -0.28092766q0.703125 2.4795532E-4 1.4375 0.45363426l-0.484375 1.2967033q-0.515625 -0.2970581 -1.03125 -0.2972412q-0.453125 -1.6021729E-4 -0.828125 0.28095627q-0.359375 0.26549911 -0.515625 0.7654438q-0.234375 0.7499161 -0.234375 1.6405411l0 4.343752l-1.40625 -4.9972534E-4zm11.015625 -2.6679726l1.453125 0.17238998q-0.34375 1.2811279 -1.28125 1.983921q-0.921875 0.70279694 -2.359375 0.7022896q-1.828125 -6.4849854E-4 -2.890625 -1.1260262q-1.0625 -1.1253738 -1.0625 -3.1410007q0 -2.09375 1.078125 -3.2496166q1.078125 -1.1558685 2.796875 -1.1552601q1.65625 5.874634E-4 2.703125 1.1415825q1.0625 1.1253777 1.0625 3.1722527q0 0.125 0 0.375l-6.1875 -0.002193451q0.078125 1.3750286 0.765625 2.1096478q0.703125 0.71899796 1.734375 0.71936417q0.78125 2.746582E-4 1.328125 -0.4057808q0.546875 -0.40605545 0.859375 -1.2965698zm-4.609375 -2.2828827l4.625 0.0016384125q-0.09375 -1.0469093 -0.53125 -1.5626888q-0.671875 -0.8127384 -1.734375 -0.81311417q-0.96875 -3.4332275E-4 -1.640625 0.65566826q-0.65625 0.6403923 -0.71875 1.7184963zm17.953125 2.287609l1.453125 0.17238998q-0.34375 1.2811279 -1.28125 1.983921q-0.921875 0.70280075 -2.359375 0.7022896q-1.828125 -6.4849854E-4 -2.890625 -1.1260223q-1.0625 -1.1253777 -1.0625 -3.1410027q0 -2.09375 1.078125 -3.2496185q1.078125 -1.1558685 2.796875 -1.1552582q1.65625 5.8555603E-4 2.703125 1.1415825q1.0625 1.1253757 1.0625 3.1722507q0 0.125 0 0.3750019l-6.1875 -0.002193451q0.078125 1.3750267 0.765625 2.1096458q0.703125 0.71899796 1.734375 0.71936417q0.78125 2.784729E-4 1.328125 -0.40577698q0.546875 -0.40605927 0.859375 -1.2965736zm-4.609375 -2.2828827l4.625 0.0016403198q-0.09375 -1.0469093 -0.53125 -1.5626888q-0.671875 -0.8127384 -1.734375 -0.81311417q-0.96875 -3.4332275E-4 -1.640625 0.65566826q-0.65625 0.6403923 -0.71875 1.7184944zm7.8359375 4.955902l0 -8.296875l1.265625 4.4822693E-4l0 1.171875q0.90625 -1.3590546 2.640625 -1.3584404q0.75 2.670288E-4 1.375 0.26611328q0.625 0.26584625 0.9375 0.7034569q0.3125 0.43761063 0.4375 1.0470295q0.078125 0.3906536 0.078125 1.3594036l0 5.109377l-1.40625 -4.9972534E-4l0 -5.046875q0 -0.859375 -0.171875 -1.281311q-0.15625 -0.4375553 -0.578125 -0.687706q-0.40625 -0.25014305 -0.96875 -0.25034332q-0.90625 -3.2043457E-4 -1.5625 0.57757187q-0.640625 0.562273 -0.640625 2.156023l0 4.531252l-1.40625 -4.9972534E-4zm11.1953125 0.003967285l-3.15625 -8.297995l1.484375 5.264282E-4l1.78125 4.9693813q0.296875 0.7969818 0.53125 1.6720619q0.1875 -0.65618134 0.53125 -1.5779343l1.84375 -5.0618477l1.4375 5.092621E-4l-3.140625 8.295763l-1.3125 -4.6539307E-4z" fill-rule="nonzero"/><path fill="#6aa84f" d="m573.92377 44.907864l0 -1.609375l1.40625 4.9972534E-4l0 1.609375l-1.40625 -4.9972534E-4zm0 9.843754l0 -8.296879l1.40625 4.9972534E-4l0 8.296875l-1.40625 -4.9591064E-4zm2.9921875 -2.4833183l1.390625 -0.21825409q0.109375 0.84378815 0.640625 1.2971001q0.546875 0.43769455 1.5 0.43803024q0.96875 3.4332275E-4 1.4375 -0.39011383q0.46875 -0.40608597 0.46875 -0.93733597q0 -0.46875 -0.40625 -0.75014114q-0.296875 -0.18760681 -1.4375 -0.46926117q-1.546875 -0.3911705 -2.15625 -0.67263794q-0.59375 -0.2970848 -0.90625 -0.79719543q-0.296875 -0.5001068 -0.296875 -1.1094818q0 -0.5625 0.25 -1.0311623q0.25 -0.46865845 0.6875 -0.78100586q0.328125 -0.24988174 0.890625 -0.40593338q0.578125 -0.171669 1.21875 -0.17144394q0.984375 3.5095215E-4 1.71875 0.28186035q0.734375 0.2815094 1.078125 0.76600647q0.359375 0.46887589 0.5 1.2814255l-1.375 0.18701553q-0.09375 -0.64065933 -0.546875 -1.0001945q-0.453125 -0.35953522 -1.265625 -0.35982513q-0.96875 -3.4332275E-4 -1.390625 0.3276329q-0.40625 0.31235504 -0.40625 0.73423004q0 0.28125 0.171875 0.50006104q0.171875 0.21881104 0.53125 0.37519073q0.21875 0.078201294 1.25 0.3598175q1.484375 0.39115143 2.078125 0.65698624q0.59375 0.2502098 0.921875 0.73469925q0.34375 0.48449707 0.34375 1.2032471q0 0.703125 -0.421875 1.3279762q-0.40625 0.60923386 -1.1875 0.9527054q-0.765625 0.34347916 -1.734375 0.34313583q-1.625 -5.760193E-4 -2.46875 -0.67274857q-0.84375 -0.67217636 -1.078125 -2.0003853zm8.0 0.00283432l1.390625 -0.21825409q0.109375 0.84378815 0.640625 1.2971001q0.546875 0.43769455 1.5 0.43803024q0.96875 3.4332275E-4 1.4375 -0.39011383q0.46875 -0.40608597 0.46875 -0.93733597q0 -0.46875 -0.40625 -0.75014114q-0.296875 -0.18760681 -1.4375 -0.46926117q-1.546875 -0.3911705 -2.15625 -0.67263794q-0.59375 -0.2970848 -0.90625 -0.79719543q-0.296875 -0.5001068 -0.296875 -1.1094818q0 -0.5625 0.25 -1.0311623q0.25 -0.46865845 0.6875 -0.78100586q0.328125 -0.24988174 0.890625 -0.40593338q0.578125 -0.171669 1.21875 -0.17144394q0.984375 3.5095215E-4 1.71875 0.28186035q0.734375 0.2815094 1.078125 0.76600647q0.359375 0.46887589 0.5 1.2814255l-1.375 0.18701553q-0.09375 -0.64065933 -0.546875 -1.0001945q-0.453125 -0.35953522 -1.265625 -0.35982513q-0.96875 -3.4332275E-4 -1.390625 0.3276329q-0.40625 0.31235504 -0.40625 0.73423004q0 0.28125 0.171875 0.50006104q0.171875 0.21881104 0.53125 0.37519073q0.21875 0.078201294 1.25 0.3598175q1.484375 0.39115143 2.078125 0.65698624q0.59375 0.2502098 0.921875 0.73469925q0.34375 0.48449707 0.34375 1.2032471q0 0.703125 -0.421875 1.3279762q-0.40625 0.60923386 -1.1875 0.9527054q-0.765625 0.34347916 -1.734375 0.34313583q-1.625 -5.760193E-4 -2.46875 -0.67274857q-0.84375 -0.67217636 -1.078125 -2.0003853zm14.0 2.489338l0 -1.21875q-0.96875 1.4059067 -2.640625 1.4053154q-0.734375 -2.632141E-4 -1.375 -0.28173828q-0.625 -0.28147125 -0.9375 -0.7034569q-0.3125 -0.43761063 -0.4375 -1.0470314q-0.078125 -0.4219017 -0.078125 -1.3125267l0 -5.140625l1.40625 4.9591064E-4l0 4.59375q0 1.109375 0.078125 1.4844055q0.140625 0.5625496 0.5625 0.87519836q0.4375 0.3126564 1.0625 0.31287766q0.640625 2.2506714E-4 1.1875 -0.31208038q0.5625 -0.32792664 0.78125 -0.89035034q0.234375 -0.5624161 0.234375 -1.6249161l0 -4.4375l1.40625 4.9972534E-4l0 8.296875l-1.25 -4.4250488E-4zm9.1328125 -2.6686401l1.453125 0.17238998q-0.34375 1.2811279 -1.28125 1.983921q-0.921875 0.70279694 -2.359375 0.7022896q-1.828125 -6.4849854E-4 -2.890625 -1.1260262q-1.0625 -1.1253738 -1.0625 -3.1409988q0 -2.09375 1.078125 -3.2496185q1.078125 -1.1558685 2.796875 -1.155262q1.65625 5.874634E-4 2.703125 1.1415863q1.0625 1.1253738 1.0625 3.1722488q0 0.125 0 0.375l-6.1875 -0.0021896362q0.078125 1.3750267 0.765625 2.1096458q0.703125 0.71899796 1.734375 0.71936417q0.78125 2.746582E-4 1.328125 -0.4057808q0.546875 -0.40605545 0.859375 -1.2965698zm-4.609375 -2.2828827l4.625 0.0016365051q-0.09375 -1.0469055 -0.53125 -1.5626869q-0.671875 -0.8127365 -1.734375 -0.81311417q-0.96875 -3.4332275E-4 -1.640625 0.65567017q-0.65625 0.6403923 -0.71875 1.7184944zm7.2890625 1.5182076l0 -1.421875l4.3125 0.0015258789l0 1.421875l-4.3125 -0.0015258789zm9.984375 3.4410362l0 -2.75l-4.96875 -0.0017585754l0 -1.28125l5.234375 -7.420021l1.140625 4.043579E-4l0 7.421875l1.546875 5.455017E-4l0 1.28125l-1.546875 -5.455017E-4l0 2.75l-1.40625 -4.9972534E-4zm0 -4.03125l0 -5.171875l-3.578125 5.1706085l3.578125 0.0012664795zm4.3984375 1.0328102l1.46875 -0.1244812q0.171875 1.078186 0.765625 1.6252708q0.59375 0.5314598 1.4375 0.53176117q1.015625 3.5858154E-4 1.71875 -0.76501846q0.703125 -0.76537323 0.703125 -2.0309982q0 -1.203125 -0.671875 -1.8908653q-0.671875 -0.7033615 -1.765625 -0.7037506q-0.6875 -2.4414062E-4 -1.234375 0.31206512q-0.546875 0.31230545 -0.859375 0.7965698l-1.3125 -0.1723404l1.109375 -5.874607l5.6875 0.0020141602l0 1.34375l-4.5625 -0.0016174316l-0.625 3.0779037q1.03125 -0.7183838 2.171875 -0.71797943q1.5 5.302429E-4 2.53125 1.0477715q1.03125 1.0316162 1.03125 2.6566162q0 1.5625 -0.90625 2.6871796q-1.109375 1.4058571 -3.015625 1.4051819q-1.5625 -5.531311E-4 -2.546875 -0.8759041q-0.984375 -0.89097214 -1.125 -2.3285217zm16.195312 -5.6505127l-1.40625 0.108875275q-0.1875 -0.82818985 -0.53125 -1.2033119q-0.5625 -0.5939522 -1.40625 -0.5942497q-0.671875 -2.3651123E-4 -1.171875 0.3745842q-0.671875 0.4841385 -1.0625 1.4215012q-0.375 0.9217415 -0.390625 2.6404839q0.515625 -0.7810669 1.25 -1.1558075q0.734375 -0.3747368 1.53125 -0.3744545q1.40625 4.9591064E-4 2.390625 1.0477219q1.0 1.0316048 1.0 2.6722298q0 1.078125 -0.46875 1.9998322q-0.46875 0.92171097 -1.28125 1.421421q-0.8125 0.4997139 -1.84375 0.4993477q-1.75 -6.2179565E-4 -2.859375 -1.2978897q-1.109375 -1.2972679 -1.109375 -4.266018q0 -3.328125 1.21875 -4.827694q1.078125 -1.3121185 2.890625 -1.3114738q1.34375 4.7683716E-4 2.203125 0.7664032q0.875 0.7503128 1.046875 2.0784988zm-5.75 4.935463q0 0.734375 0.3125 1.4063606q0.3125 0.6563606 0.859375 1.0003052q0.5625 0.34394836 1.171875 0.344162q0.890625 3.1661987E-4 1.53125 -0.7182045q0.640625 -0.71852493 0.640625 -1.9528999q0 -1.1875 -0.640625 -1.8596001q-0.625 -0.68772125 -1.59375 -0.6880646q-0.953125 -3.3950806E-4 -1.625 0.686924q-0.65625 0.6716423 -0.65625 1.7810173zm8.1328125 3.72163l0 -1.609375l1.609375 5.722046E-4l0 1.609375l-1.609375 -5.722046E-4zm4.0546875 3.1889381l0 -11.484375l1.28125 4.5394897E-4l0 1.078125q0.453125 -0.6404648 1.015625 -0.9527664q0.578125 -0.312294 1.390625 -0.3120079q1.0625 3.7765503E-4 1.875 0.54753876q0.8125 0.5471649 1.21875 1.5473061q0.421875 0.9845276 0.421875 2.1720276q0 1.28125 -0.46875 2.2967072q-0.453125 1.0154648 -1.328125 1.5620308q-0.859375 0.5465698 -1.828125 0.5462265q-0.703125 -2.4795532E-4 -1.265625 -0.29732132q-0.546875 -0.29706955 -0.90625 -0.75032425l0 4.046875l-1.40625 -4.9591064E-4zm1.265625 -7.2964287q0 1.609375 0.640625 2.375229q0.65625 0.7658577 1.578125 0.76618195q0.9375 3.3187866E-4 1.609375 -0.7963028q0.671875 -0.7966385 0.671875 -2.4528885q0 -1.59375 -0.65625 -2.3752327q-0.65625 -0.7971077 -1.5625 -0.79742813q-0.890625 -3.1661987E-4 -1.59375 0.8431854q-0.6875 0.84350586 -0.6875 2.4372559zm7.6171875 4.112076l0 -8.296875l1.265625 4.4631958E-4l0 1.25q0.484375 -0.87482834 0.890625 -1.1559334q0.40625 -0.28110504 0.90625 -0.28092957q0.703125 2.4795532E-4 1.4375 0.45363617l-0.484375 1.2967033q-0.515625 -0.2970581 -1.03125 -0.2972412q-0.453125 -1.6021729E-4 -0.828125 0.28095627q-0.359375 0.26549911 -0.515625 0.7654419q-0.234375 0.7499161 -0.234375 1.6405411l0 4.34375l-1.40625 -4.9591064E-4zm4.8125 -4.154545q0 -2.296875 1.28125 -3.405796q1.078125 -0.92149353 2.609375 -0.92095184q1.71875 6.1035156E-4 2.796875 1.1259918q1.09375 1.1097603 1.09375 3.0941353q0 1.59375 -0.484375 2.5154533q-0.484375 0.92170334 -1.40625 1.4370041q-0.90625 0.49967957 -2.0 0.49929047q-1.734375 -6.1416626E-4 -2.8125 -1.1103706q-1.078125 -1.1253815 -1.078125 -3.2347565zm1.453125 5.1498413E-4q0 1.59375 0.6875 2.3908691q0.703125 0.79712296 1.75 0.797493q1.046875 3.7002563E-4 1.734375 -0.79626083q0.703125 -0.79662704 0.703125 -2.437252q0 -1.53125 -0.703125 -2.328373q-0.6875 -0.79711914 -1.734375 -0.79748917q-1.046875 -3.7002563E-4 -1.75 0.7962532q-0.6875 0.7810097 -0.6875 2.3747597zm7.9609375 -5.669056l0 -1.625l1.40625 4.9591064E-4l0 1.6250038l-1.40625 -4.9972534E-4zm-1.78125 13.046246l0.265625 -1.1874084q0.421875 0.10952759 0.671875 0.109615326q0.421875 1.487732E-4 0.625 -0.29665375q0.21875 -0.2811737 0.21875 -1.4217987l0 -8.71875l1.40625 4.9972534E-4l0 8.75q0 1.53125 -0.390625 2.1404839q-0.515625 0.7810707 -1.6875 0.7806549q-0.578125 -2.0599365E-4 -1.109375 -0.15664291zm11.0234375 -5.8867226l1.453125 0.17238998q-0.34375 1.2811279 -1.28125 1.983921q-0.921875 0.70280075 -2.359375 0.7022896q-1.828125 -6.4849854E-4 -2.890625 -1.1260223q-1.0625 -1.1253777 -1.0625 -3.1410027q0 -2.09375 1.078125 -3.2496185q1.078125 -1.1558685 2.796875 -1.1552582q1.65625 5.874634E-4 2.703125 1.1415825q1.0625 1.1253777 1.0625 3.1722527q0 0.125 0 0.375l-6.1875 -0.002193451q0.078125 1.3750267 0.765625 2.1096458q0.703125 0.71899796 1.734375 0.71936417q0.78125 2.784729E-4 1.328125 -0.40577698q0.546875 -0.40605927 0.859375 -1.2965736zm-4.609375 -2.2828827l4.625 0.0016403198q-0.09375 -1.0469093 -0.53125 -1.5626907q-0.671875 -0.8127365 -1.734375 -0.81311417q-0.96875 -3.4332275E-4 -1.640625 0.65567017q-0.65625 0.6403923 -0.71875 1.7184944zm13.2421875 1.9109421l1.390625 0.1879921q-0.234375 1.4217949 -1.171875 2.233963q-0.921875 0.81217194 -2.28125 0.8116913q-1.703125 -6.0272217E-4 -2.75 -1.1103516q-1.03125 -1.1253662 -1.03125 -3.2034912q0 -1.34375 0.4375 -2.3435936q0.453125 -1.0154648 1.359375 -1.5151443q0.921875 -0.49967194 1.984375 -0.49929428q1.359375 4.8065186E-4 2.21875 0.6882858q0.859375 0.67217636 1.09375 1.9378853l-1.359375 0.20264435q-0.203125 -0.8281975 -0.703125 -1.250248q-0.484375 -0.42204666 -1.1875 -0.42229843q-1.0625 -3.7384033E-4 -1.734375 0.76501083q-0.65625 0.7497673 -0.65625 2.4060173q0 1.671875 0.640625 2.437729q0.640625 0.75022507 1.671875 0.7505913q0.828125 2.937317E-4 1.375 -0.49951172q0.5625 -0.51542664 0.703125 -1.577877zm5.65625 1.7832565l0.203125 1.2500687q-0.59375 0.12479019 -1.0625 0.12462616q-0.765625 -2.708435E-4 -1.1875 -0.23479843q-0.421875 -0.25014877 -0.59375 -0.6408348q-0.171875 -0.40631104 -0.171875 -1.671936l0 -4.765625l-1.03125 -3.6621094E-4l0 -1.09375l1.03125 3.6621094E-4l0 -2.0625l1.40625 -0.8432503l0 2.90625l1.40625 4.9591064E-4l0 1.09375l-1.40625 -4.9591064E-4l0 4.84375q0 0.609375 0.0625 0.7812729q0.078125 0.1719017 0.25 0.28133774q0.171875 0.093811035 0.484375 0.09392166q0.234375 8.392334E-5 0.609375 -0.062282562zm1.7734375 1.2662506l0 -1.609375l1.609375 5.722046E-4l0 1.609375l-1.609375 -5.722046E-4zm9.4609375 -3.043522l1.390625 0.1879921q-0.234375 1.4217911 -1.171875 2.2339592q-0.921875 0.81217575 -2.28125 0.8116913q-1.703125 -6.0272217E-4 -2.75 -1.1103477q-1.03125 -1.1253662 -1.03125 -3.2034912q0 -1.34375 0.4375 -2.3435936q0.453125 -1.0154648 1.359375 -1.5151443q0.921875 -0.49967194 1.984375 -0.4992981q1.359375 4.8446655E-4 2.21875 0.6882858q0.859375 0.6721802 1.09375 1.9378891l-1.359375 0.20264435q-0.203125 -0.8281975 -0.703125 -1.2502518q-0.484375 -0.42204666 -1.1875 -0.42229462q-1.0625 -3.7765503E-4 -1.734375 0.76501083q-0.65625 0.7497673 -0.65625 2.4060173q0 1.671875 0.640625 2.437729q0.640625 0.75022507 1.671875 0.7505913q0.828125 2.937317E-4 1.375 -0.49951172q0.5625 -0.51542664 0.703125 -1.577877zm2.0625 -1.1086464q0 -2.296875 1.28125 -3.405796q1.078125 -0.9214897 2.609375 -0.920948q1.71875 6.0653687E-4 2.796875 1.1259918q1.09375 1.1097603 1.09375 3.0941353q0 1.59375 -0.484375 2.5154533q-0.484375 0.92170334 -1.40625 1.4370041q-0.90625 0.49967575 -2.0 0.49929047q-1.734375 -6.1416626E-4 -2.8125 -1.1103706q-1.078125 -1.1253815 -1.078125 -3.2347603zm1.453125 5.1498413E-4q0 1.59375 0.6875 2.3908691q0.703125 0.79712677 1.75 0.7974968q1.046875 3.7002563E-4 1.734375 -0.79626083q0.703125 -0.79662704 0.703125 -2.437252q0 -1.53125 -0.703125 -2.328373q-0.6875 -0.79711914 -1.734375 -0.79748917q-1.046875 -3.7002563E-4 -1.75 0.7962532q-0.6875 0.78100586 -0.6875 2.3747559zm7.9765625 4.1590767l0 -8.296875l1.25 4.4250488E-4l0 1.15625q0.390625 -0.60923386 1.03125 -0.9683838q0.65625 -0.3747673 1.484375 -0.37447357q0.921875 3.2806396E-4 1.515625 0.39116287q0.59375 0.3752098 0.828125 1.0627937q0.984375 -1.4527779 2.5625 -1.4522171q1.234375 4.348755E-4 1.890625 0.6881676q0.671875 0.6721153 0.671875 2.0939903l0 5.703125l-1.390625 -4.9209595E-4l0 -5.234375q0 -0.8437538 -0.140625 -1.2031784q-0.140625 -0.3750496 -0.5 -0.5939255q-0.359375 -0.23450089 -0.84375 -0.23467255q-0.875 -3.1280518E-4 -1.453125 0.57761q-0.578125 0.577919 -0.578125 1.859169l0 4.828125l-1.40625 -4.9972534E-4l0 -5.390625q0 -0.9375 -0.34375 -1.4063721q-0.34375 -0.46887207 -1.125 -0.46914673q-0.59375 -2.0980835E-4 -1.09375 0.3121109q-0.5 0.31232452 -0.734375 0.9216156q-0.21875 0.5936737 -0.21875 1.7186737l0 4.3125l-1.40625 -4.9972534E-4z" fill-rule="nonzero"/><path fill="#000000" fill-opacity="0.0" d="m604.3753 198.29396l34.04724 -136.22047" fill-rule="evenodd"/><path stroke="#6aa84f" stroke-width="1.0" stroke-linejoin="round" stroke-linecap="butt" d="m604.3753 198.29396l32.592407 -130.39954" fill-rule="evenodd"/><path fill="#6aa84f" stroke="#6aa84f" stroke-width="1.0" stroke-linecap="butt" d="m638.5701 68.294945l-0.50201416 -4.8031807l-2.7028809 4.0021477z" fill-rule="evenodd"/></g></svg>